<svg width="14" height="9" viewBox="0 0 14 9" fill="none" xmlns="http://www.w3.org/2000/svg">
<path d="M9.08008 0.273438L8.49414 0.859375C8.37695 1.00586 8.37695 1.21094 8.52344 1.35742L10.8672 3.61328H0.789062C0.583984 3.61328 0.4375 3.78906 0.4375 3.96484V4.78516C0.4375 4.99023 0.583984 5.13672 0.789062 5.13672H10.8672L8.52344 7.42188C8.37695 7.56836 8.37695 7.77344 8.49414 7.91992L9.08008 8.50586C9.22656 8.62305 9.43164 8.62305 9.57812 8.50586L13.4453 4.63867C13.5625 4.49219 13.5625 4.28711 13.4453 4.14062L9.57812 0.273438C9.43164 0.15625 9.22656 0.15625 9.08008 0.273438Z" fill="#4CB147"/>
</svg>
