<svg width="20" height="20" viewBox="0 0 20 20" fill="none" xmlns="http://www.w3.org/2000/svg">
<g clip-path="url(#clip0_584_531)">
<path d="M15.918 4.7793C14.2188 3.34375 11.6113 3.54883 10 5.21875C8.35938 3.54883 5.75195 3.34375 4.05273 4.7793C1.85547 6.625 2.17773 9.64258 3.75977 11.2539L8.88672 16.498C9.17969 16.791 9.56055 16.9668 10 16.9668C10.4102 16.9668 10.791 16.791 11.084 16.498L16.2402 11.2539C17.793 9.64258 18.1152 6.625 15.918 4.7793ZM15.2148 10.2578L10.0879 15.502C10.0293 15.5605 9.9707 15.5605 9.88281 15.502L4.75586 10.2578C3.67188 9.17383 3.4668 7.12305 4.96094 5.86328C6.10352 4.89648 7.86133 5.04297 8.97461 6.15625L10 7.21094L11.0254 6.15625C12.1094 5.04297 13.8672 4.89648 15.0098 5.83398C16.5039 7.12305 16.2988 9.17383 15.2148 10.2578Z" fill="#848B98"/>
</g>
<defs>
<clipPath id="clip0_584_531">
<rect width="20" height="20" fill="white"/>
</clipPath>
</defs>
</svg>
