<svg width="124" height="40" viewBox="0 0 124 40" fill="none" xmlns="http://www.w3.org/2000/svg">
<g id="Group 82">
<rect id="Rectangle 72" x="0.25" y="0.25" width="123.5" height="39.5" rx="7.75" fill="#101825" stroke="white" stroke-width="0.5"/>
<path id="App Store" d="M43.9736 26.9006H39.1809L38.03 30.1238H36L40.5395 18.1988H42.6486L47.1881 30.1238H45.1235L43.9736 26.9006ZM39.6773 25.4133H43.4762L41.6035 20.1823H41.5511L39.6773 25.4133ZM56.9919 25.7772C56.9919 28.4789 55.4672 30.2148 53.1663 30.2148C51.977 30.2738 50.8567 29.683 50.282 28.6937H50.2385V33H48.3568V21.4295H50.1782V22.8756H50.2128C50.813 21.8925 51.9345 21.302 53.1317 21.3386C55.4583 21.3386 56.9919 23.0829 56.9919 25.7772ZM55.0578 25.7772C55.0578 24.0169 54.0987 22.8597 52.6353 22.8597C51.1976 22.8597 50.2306 24.0413 50.2306 25.7772C50.2306 27.5289 51.1976 28.7021 52.6353 28.7021C54.0987 28.7021 55.0578 27.5533 55.0578 25.7772ZM67.0815 25.7772C67.0815 28.4789 65.5568 30.2148 63.2559 30.2148C62.0665 30.2738 60.9463 29.683 60.3716 28.6937H60.328V33H58.4464V21.4295H60.2677V22.8756H60.3023C60.9025 21.8925 62.024 21.302 63.2212 21.3386C65.5479 21.3386 67.0815 23.0829 67.0815 25.7772ZM65.1474 25.7772C65.1474 24.0169 64.1883 22.8597 62.7249 22.8597C61.2872 22.8597 60.3201 24.0413 60.3201 25.7772C60.3201 27.5289 61.2872 28.7021 62.7249 28.7021C64.1883 28.7021 65.1474 27.5533 65.1474 25.7772ZM73.7498 26.8012C73.8893 27.9838 75.1005 28.7602 76.7557 28.7602C78.3418 28.7602 79.4828 27.9837 79.4828 26.9175C79.4828 25.9919 78.7946 25.4376 77.1651 25.0578L75.5356 24.6855C73.2268 24.1566 72.1549 23.1325 72.1549 21.4708C72.1549 19.4133 74.0455 18 76.73 18C79.3869 18 81.2082 19.4133 81.2695 21.4708H79.3701C79.2564 20.2807 78.2191 19.5624 76.7033 19.5624C75.1875 19.5624 74.1503 20.2892 74.1503 21.347C74.1503 22.1901 74.8128 22.6861 76.4334 23.0659L77.8187 23.3885C80.3984 23.9671 81.4702 24.95 81.4702 26.6942C81.4702 28.9252 79.5965 30.3225 76.6163 30.3225C73.8279 30.3225 71.9453 28.958 71.8237 26.8011L73.7498 26.8012ZM85.5312 19.372V21.4295H87.2744V22.8428H85.5312V27.6358C85.5312 28.3805 85.8802 28.7274 86.6466 28.7274C86.8535 28.724 87.0601 28.7102 87.2655 28.6861V30.091C86.921 30.152 86.5708 30.1797 86.2204 30.1735C84.3644 30.1735 83.6406 29.5123 83.6406 27.8262V22.8428H82.3078V21.4295H83.6406V19.372H85.5312ZM88.284 25.7772C88.284 23.0416 89.9827 21.3226 92.6317 21.3226C95.2896 21.3226 96.9804 23.0416 96.9804 25.7772C96.9804 28.5202 95.2985 30.2317 92.6317 30.2317C89.9659 30.2317 88.284 28.5202 88.284 25.7772ZM95.0631 25.7772C95.0631 23.9006 94.1564 22.7931 92.6317 22.7931C91.107 22.7931 90.2013 23.9091 90.2013 25.7772C90.2013 27.6612 91.107 28.7603 92.6317 28.7603C94.1564 28.7603 95.0631 27.6612 95.0631 25.7772ZM98.5317 21.4295H100.326V22.9094H100.37C100.62 21.9567 101.541 21.3011 102.575 21.3386C102.792 21.3379 103.008 21.3602 103.22 21.4052V23.0744C102.946 22.9951 102.66 22.9587 102.374 22.9666C101.821 22.9453 101.286 23.1544 100.909 23.539C100.532 23.9235 100.351 24.4452 100.413 24.9669V30.1238H98.5317V21.4295ZM111.895 27.5702C111.642 29.1485 110.021 30.2316 107.948 30.2316C105.281 30.2316 103.626 28.5371 103.626 25.8184C103.626 23.0913 105.29 21.3226 107.869 21.3226C110.405 21.3226 112 22.975 112 25.6112V26.2226H105.525V26.3304C105.465 26.9777 105.701 27.6184 106.172 28.0896C106.644 28.5608 107.307 28.817 107.991 28.7931C108.905 28.8742 109.766 28.3769 110.108 27.5702L111.895 27.5702ZM105.534 24.9753H110.117C110.151 24.3937 109.928 23.825 109.501 23.4061C109.075 22.9872 108.483 22.7562 107.869 22.7687C107.25 22.7652 106.655 22.9963 106.217 23.4107C105.778 23.8251 105.533 24.3883 105.534 24.9753Z" fill="white"/>
<path id="Download on the" d="M40.1508 9.27743C40.9381 9.224 41.7092 9.50725 42.252 10.0492C42.7947 10.5911 43.0518 11.3347 42.9526 12.0751C42.9526 13.8739 41.9244 14.9079 40.1508 14.9079H38V9.27743H40.1508ZM38.9248 14.1117H40.0475C40.6101 14.1435 41.158 13.9338 41.5389 13.541C41.9198 13.1482 42.0933 12.6139 42.0111 12.0866C42.0873 11.5615 41.9114 11.0317 41.5314 10.642C41.1514 10.2524 40.6071 10.0437 40.0475 10.0731H38.9248V14.1117ZM43.9972 12.7815C43.9202 12.0198 44.3064 11.2828 44.9939 10.8793C45.6814 10.4759 46.5513 10.4759 47.2388 10.8793C47.9263 11.2828 48.3125 12.0198 48.2355 12.7815C48.314 13.5439 47.9281 14.2824 47.24 14.6867C46.5519 15.091 45.6808 15.091 44.9927 14.6867C44.3046 14.2824 43.9187 13.5439 43.9972 12.7815ZM47.3233 12.7815C47.3233 11.8604 46.8857 11.3218 46.1178 11.3218C45.347 11.3218 44.9133 11.8604 44.9133 12.7815C44.9133 13.7099 45.347 14.2444 46.1178 14.2444C46.8858 14.2444 47.3233 13.7062 47.3233 12.7815ZM53.8692 14.9078H52.9493L52.0205 11.7784H51.9504L51.0255 14.9078H50.1144L48.8757 10.6587H49.7752L50.5802 13.9011H50.6465L51.5703 10.6587H52.4211L53.3449 13.9011H53.4151L54.2161 10.6587H55.103L53.8692 14.9078ZM56.1447 10.6587H56.9984V11.3337H57.0647C57.2951 10.8368 57.8337 10.5327 58.4056 10.5767C58.8485 10.5452 59.2825 10.7059 59.5851 11.0133C59.8877 11.3208 60.026 11.7417 59.961 12.1571V14.9078H59.0742V12.3677C59.0742 11.6849 58.7604 11.3453 58.1045 11.3453C57.8041 11.332 57.5126 11.4435 57.3063 11.6505C57.1001 11.8575 56.9997 12.1393 57.0316 12.4221V14.9078H56.1447V10.6587ZM61.3741 9H62.2609V14.9078H61.3741V9ZM63.4937 12.7815C63.4167 12.0198 63.8029 11.2827 64.4905 10.8793C65.178 10.4758 66.048 10.4758 66.7355 10.8793C67.4231 11.2827 67.8094 12.0198 67.7324 12.7815C67.8108 13.5439 67.4249 14.2824 66.7367 14.6867C66.0486 15.0909 65.1774 15.0909 64.4893 14.6867C63.8012 14.2824 63.4152 13.5439 63.4937 12.7815ZM66.8197 12.7815C66.8197 11.8604 66.3821 11.3218 65.6142 11.3218C64.8434 11.3218 64.4097 11.8604 64.4097 12.7815C64.4097 13.7099 64.8434 14.2444 65.6142 14.2444C66.3822 14.2444 66.8197 13.7062 66.8197 12.7815ZM68.666 13.7062C68.666 12.9413 69.2682 12.5004 70.3373 12.4377L71.5545 12.3714V12.0046C71.5545 11.5558 71.2407 11.3024 70.6345 11.3024C70.1395 11.3024 69.7964 11.4743 69.698 11.7747H68.8394C68.9301 11.0449 69.6561 10.5767 70.6754 10.5767C71.802 10.5767 72.4374 11.1071 72.4374 12.0046V14.9079H71.5837V14.3107H71.5135C71.2236 14.7468 70.708 15.0017 70.1638 14.9779C69.7823 15.0154 69.4019 14.8986 69.1165 14.6563C68.8311 14.414 68.6675 14.0689 68.666 13.7062ZM71.5545 13.3431V12.9879L70.4571 13.0542C69.8383 13.0934 69.5577 13.2924 69.5577 13.667C69.5577 14.0495 69.9085 14.272 70.3909 14.272C70.6765 14.2993 70.9616 14.2159 71.1809 14.0408C71.4003 13.8657 71.5351 13.6139 71.5545 13.3431ZM73.6029 12.7815C73.6029 11.4388 74.3328 10.5882 75.4682 10.5882C76.0414 10.5633 76.5784 10.8537 76.8461 11.3337H76.9124V9H77.7992V14.9078H76.9494V14.2365H76.8793C76.5913 14.7125 76.0477 14.9981 75.4682 14.9779C74.3251 14.9779 73.6029 14.1273 73.6029 12.7815ZM74.519 12.7815C74.519 13.6827 74.9683 14.225 75.7196 14.225C76.4671 14.225 76.929 13.6749 76.929 12.7851C76.929 11.8996 76.4622 11.3416 75.7196 11.3416C74.9731 11.3416 74.519 11.8876 74.519 12.7815H74.519ZM81.4683 12.7815C81.3913 12.0198 81.7775 11.2828 82.465 10.8793C83.1525 10.4759 84.0224 10.4759 84.7099 10.8793C85.3974 11.2828 85.7836 12.0198 85.7066 12.7815C85.7851 13.5439 85.3992 14.2824 84.7111 14.6867C84.023 15.091 83.1519 15.091 82.4638 14.6867C81.7757 14.2824 81.3898 13.5439 81.4683 12.7815ZM84.7944 12.7815C84.7944 11.8604 84.3568 11.3218 83.5889 11.3218C82.8181 11.3218 82.3844 11.8604 82.3844 12.7815C82.3844 13.7099 82.8181 14.2444 83.5889 14.2444C84.3568 14.2444 84.7944 13.7062 84.7944 12.7815ZM86.8965 10.6587H87.7501V11.3337H87.8164C88.0469 10.8368 88.5854 10.5327 89.1574 10.5767C89.6003 10.5452 90.0343 10.7059 90.3368 11.0133C90.6394 11.3208 90.7777 11.7417 90.7127 12.1571V14.9078H89.8259V12.3677C89.8259 11.6849 89.5121 11.3453 88.8562 11.3453C88.5558 11.332 88.2643 11.4435 88.0581 11.6505C87.8518 11.8575 87.7515 12.1393 87.7833 12.4221V14.9078H86.8965V10.6587ZM95.7237 9.60084V10.6781H96.6973V11.3844H95.7237V13.5694C95.7237 14.0144 95.9177 14.2093 96.3591 14.2093C96.4721 14.209 96.5851 14.2025 96.6973 14.19V14.8885C96.538 14.9154 96.3767 14.9298 96.2149 14.9313C95.2287 14.9313 94.8359 14.6033 94.8359 13.7841V11.3844H94.1226V10.6781H94.8359V9.60084H95.7237ZM97.9086 9H98.7877V11.3416H98.8578C99.0993 10.8402 99.6473 10.5358 100.228 10.5804C100.668 10.5577 101.096 10.7219 101.396 11.0283C101.695 11.3346 101.834 11.7512 101.776 12.1645V14.9078H100.888V12.3714C100.888 11.6927 100.553 11.3489 99.9269 11.3489C99.6184 11.325 99.3144 11.4311 99.0963 11.6388C98.8781 11.8465 98.7681 12.1346 98.7955 12.4262V14.9078H97.9087L97.9086 9ZM106.946 13.7606C106.698 14.5621 105.877 15.0799 104.999 14.9899C104.4 15.0048 103.824 14.77 103.425 14.3476C103.025 13.9253 102.842 13.3581 102.924 12.7967C102.844 12.2336 103.026 11.6656 103.424 11.2397C103.821 10.8137 104.395 10.5719 104.995 10.5767C106.246 10.5767 107 11.3845 107 12.7188V13.0114H103.827V13.0584C103.799 13.3737 103.913 13.6856 104.141 13.9173C104.368 14.1491 104.689 14.2792 105.024 14.2757C105.458 14.3249 105.88 14.1214 106.093 13.7605L106.946 13.7606ZM103.827 12.3912H106.097C106.119 12.1028 106.012 11.8188 105.801 11.6092C105.591 11.3996 105.296 11.2838 104.99 11.2904C104.681 11.2868 104.382 11.4016 104.163 11.6088C103.944 11.8161 103.823 12.0982 103.827 12.3912H103.827Z" fill="white"/>
<path id="Icon" d="M27.0341 20.1678C27.0563 18.5317 27.9599 17.0205 29.4283 16.1636C28.4977 14.9022 26.995 14.131 25.3733 14.0829C23.6672 13.9129 22.0132 15.0519 21.1438 15.0519C20.2576 15.0519 18.919 14.0997 17.4776 14.1279C15.581 14.186 13.8558 15.1847 12.9331 16.7585C10.9681 19.9876 12.4338 24.7333 14.3161 27.3435C15.2578 28.6216 16.3584 30.0493 17.7985 29.9987C19.2078 29.9432 19.7341 29.1457 21.4352 29.1457C23.1205 29.1457 23.6143 29.9987 25.0837 29.9665C26.5958 29.9432 27.5486 28.6827 28.4573 27.3925C29.1339 26.4818 29.6546 25.4752 30 24.4102C28.204 23.6891 27.0362 22.0187 27.0341 20.1678ZM24.2587 12.3662C25.0832 11.4267 25.4894 10.2192 25.3911 9C24.1314 9.12558 22.9678 9.69702 22.1322 10.6005C21.307 11.4918 20.889 12.658 20.9702 13.8421C22.2467 13.8546 23.4588 13.3106 24.2587 12.3662Z" fill="white"/>
</g>
</svg>
