<svg width="352" height="206" viewBox="0 0 352 206" fill="none" xmlns="http://www.w3.org/2000/svg">
<path d="M19.976 20.112C19.3693 20.112 18.8047 20 18.282 19.776C17.7687 19.552 17.3533 19.2207 17.036 18.782C16.7187 18.3433 16.56 17.8067 16.56 17.172C16.56 16.6027 16.7047 16.0987 16.994 15.66C17.2833 15.2213 17.694 14.8993 18.226 14.694C17.862 14.5167 17.5773 14.26 17.372 13.924C17.176 13.588 17.078 13.1913 17.078 12.734C17.078 12.202 17.2133 11.74 17.484 11.348C17.7547 10.956 18.114 10.6573 18.562 10.452C19.01 10.2373 19.486 10.13 19.99 10.13C20.522 10.13 21.0073 10.242 21.446 10.466C21.894 10.6807 22.244 10.9887 22.496 11.39C22.7573 11.7913 22.888 12.258 22.888 12.79C22.888 13.2287 22.7853 13.6113 22.58 13.938C22.384 14.2647 22.104 14.5167 21.74 14.694C22.272 14.9087 22.678 15.2353 22.958 15.674C23.2473 16.1033 23.392 16.6027 23.392 17.172C23.392 17.8067 23.2333 18.3433 22.916 18.782C22.5987 19.2207 22.1787 19.552 21.656 19.776C21.1427 20 20.5827 20.112 19.976 20.112ZM20.004 14.344C20.4893 14.344 20.8813 14.2087 21.18 13.938C21.488 13.658 21.642 13.2987 21.642 12.86C21.642 12.3933 21.4927 12.02 21.194 11.74C20.8953 11.46 20.494 11.32 19.99 11.32C19.514 11.32 19.1173 11.4553 18.8 11.726C18.4827 11.9967 18.324 12.3607 18.324 12.818C18.324 13.2753 18.478 13.644 18.786 13.924C19.094 14.204 19.5 14.344 20.004 14.344ZM19.976 18.936C20.6013 18.936 21.1147 18.7727 21.516 18.446C21.9267 18.1193 22.132 17.6573 22.132 17.06C22.132 16.4907 21.9313 16.038 21.53 15.702C21.1287 15.366 20.6107 15.198 19.976 15.198C19.332 15.198 18.8093 15.366 18.408 15.702C18.0067 16.038 17.806 16.4907 17.806 17.06C17.806 17.6573 18.0113 18.1193 18.422 18.446C18.8327 18.7727 19.3507 18.936 19.976 18.936ZM31.3571 20.112C30.7131 20.112 30.1344 19.9627 29.6211 19.664C29.1077 19.356 28.7064 18.9313 28.4171 18.39C28.1277 17.8487 27.9831 17.2327 27.9831 16.542C27.9831 15.8513 28.1277 15.24 28.4171 14.708C28.7064 14.1667 29.1031 13.7467 29.6071 13.448C30.1204 13.14 30.7037 12.986 31.3571 12.986C32.0011 12.986 32.5797 13.14 33.0931 13.448C33.6064 13.7467 34.0077 14.1667 34.2971 14.708C34.5864 15.2493 34.7311 15.8607 34.7311 16.542C34.7311 17.2233 34.5864 17.8347 34.2971 18.376C34.0077 18.9173 33.6064 19.342 33.0931 19.65C32.5797 19.958 32.0011 20.112 31.3571 20.112ZM31.3571 19.02C32.0011 19.02 32.5144 18.796 32.8971 18.348C33.2891 17.9 33.4851 17.298 33.4851 16.542C33.4851 15.786 33.2891 15.1887 32.8971 14.75C32.5144 14.302 32.0011 14.078 31.3571 14.078C30.7037 14.078 30.1857 14.302 29.8031 14.75C29.4297 15.1887 29.2431 15.786 29.2431 16.542C29.2431 17.298 29.4344 17.9 29.8171 18.348C30.1997 18.796 30.7131 19.02 31.3571 19.02ZM42.0958 13.098L39.6178 15.646L42.4598 20H40.9758L38.7078 16.5L37.5178 17.774V20H36.2718V10.242H37.5178V16.22L40.4298 13.098H42.0958ZM47.0129 14.078H45.3049V18.096C45.3049 18.404 45.3656 18.6513 45.4869 18.838C45.6083 19.0153 45.8369 19.104 46.1729 19.104C46.4063 19.104 46.6863 19.0527 47.0129 18.95V19.93C46.6396 20.0513 46.2616 20.112 45.8789 20.112C45.3283 20.112 44.8896 19.9627 44.5629 19.664C44.2363 19.356 44.0729 18.8707 44.0729 18.208V14.078H42.9249V13.098H44.0729V11.278L45.3049 10.578V13.098H47.0129V14.078Z" fill="#101825"/>
<path d="M16.268 30.988C16.772 30.988 17.228 31.116 17.636 31.372C18.044 31.628 18.364 31.988 18.596 32.452C18.836 32.908 18.956 33.436 18.956 34.036C18.956 34.612 18.844 35.132 18.62 35.596C18.396 36.06 18.08 36.428 17.672 36.7C17.264 36.964 16.796 37.096 16.268 37.096C15.836 37.096 15.448 37.012 15.104 36.844C14.76 36.668 14.476 36.412 14.252 36.076V37H13.4V28.636H14.252V32.032C14.468 31.696 14.748 31.44 15.092 31.264C15.436 31.08 15.828 30.988 16.268 30.988ZM16.136 36.304C16.512 36.304 16.848 36.208 17.144 36.016C17.44 35.816 17.672 35.544 17.84 35.2C18.008 34.856 18.092 34.468 18.092 34.036C18.092 33.604 18.008 33.216 17.84 32.872C17.672 32.528 17.44 32.26 17.144 32.068C16.848 31.876 16.512 31.78 16.136 31.78C15.76 31.78 15.42 31.876 15.116 32.068C14.82 32.26 14.588 32.528 14.42 32.872C14.26 33.216 14.18 33.604 14.18 34.036C14.18 34.468 14.26 34.86 14.42 35.212C14.588 35.556 14.82 35.824 15.116 36.016C15.42 36.208 15.76 36.304 16.136 36.304ZM22.6769 30.988C23.4449 30.988 24.0329 31.192 24.4409 31.6C24.8569 32 25.0649 32.572 25.0649 33.316V37H24.2729L24.2249 36.064C24.0089 36.408 23.7209 36.668 23.3609 36.844C23.0009 37.012 22.6049 37.096 22.1729 37.096C21.5329 37.096 21.0209 36.928 20.6369 36.592C20.2609 36.256 20.0729 35.812 20.0729 35.26C20.0729 34.668 20.3049 34.22 20.7689 33.916C21.1929 33.652 21.7689 33.52 22.4969 33.52H24.2129V33.316C24.2129 32.804 24.0769 32.416 23.8049 32.152C23.5409 31.88 23.1489 31.744 22.6289 31.744C22.2689 31.744 21.9489 31.816 21.6689 31.96C21.3889 32.096 21.1169 32.324 20.8529 32.644L20.2289 32.116C20.8449 31.364 21.6609 30.988 22.6769 30.988ZM22.2449 36.388C22.6129 36.388 22.9449 36.308 23.2409 36.148C23.5449 35.98 23.7809 35.752 23.9489 35.464C24.1249 35.168 24.2129 34.84 24.2129 34.48V34.204H22.6049C22.0689 34.204 21.6609 34.288 21.3809 34.456C21.0849 34.632 20.9369 34.904 20.9369 35.272C20.9369 35.608 21.0569 35.88 21.2969 36.088C21.5369 36.288 21.8529 36.388 22.2449 36.388ZM26.3662 31.084H30.8902V31.768L27.2902 36.268H30.8662V37H26.1862V36.376L29.8702 31.816H26.3662V31.084ZM34.3605 30.988C35.1285 30.988 35.7165 31.192 36.1245 31.6C36.5405 32 36.7485 32.572 36.7485 33.316V37H35.9565L35.9085 36.064C35.6925 36.408 35.4045 36.668 35.0445 36.844C34.6845 37.012 34.2885 37.096 33.8565 37.096C33.2165 37.096 32.7045 36.928 32.3205 36.592C31.9445 36.256 31.7565 35.812 31.7565 35.26C31.7565 34.668 31.9885 34.22 32.4525 33.916C32.8765 33.652 33.4525 33.52 34.1805 33.52H35.8965V33.316C35.8965 32.804 35.7605 32.416 35.4885 32.152C35.2245 31.88 34.8325 31.744 34.3125 31.744C33.9525 31.744 33.6325 31.816 33.3525 31.96C33.0725 32.096 32.8005 32.324 32.5365 32.644L31.9125 32.116C32.5285 31.364 33.3445 30.988 34.3605 30.988ZM33.9285 36.388C34.2965 36.388 34.6285 36.308 34.9245 36.148C35.2285 35.98 35.4645 35.752 35.6325 35.464C35.8085 35.168 35.8965 34.84 35.8965 34.48V34.204H34.2885C33.7525 34.204 33.3445 34.288 33.0645 34.456C32.7685 34.632 32.6205 34.904 32.6205 35.272C32.6205 35.608 32.7405 35.88 32.9805 36.088C33.2205 36.288 33.5365 36.388 33.9285 36.388ZM41.0704 30.988C41.4304 30.988 41.7704 31.072 42.0904 31.24L41.6704 31.984C41.4144 31.872 41.1704 31.816 40.9384 31.816C40.6024 31.816 40.2904 31.92 40.0024 32.128C39.7224 32.328 39.5304 32.624 39.4264 33.016C39.3544 33.24 39.3184 33.624 39.3184 34.168V37H38.4544V31.084H39.3184V32.128C39.4864 31.776 39.7264 31.5 40.0384 31.3C40.3584 31.092 40.7024 30.988 41.0704 30.988ZM43.5358 37H42.6238V35.668H43.5358V37ZM50.1604 33.76C50.1604 33.944 50.1484 34.12 50.1244 34.288H45.8044C45.8204 34.92 45.9924 35.416 46.3204 35.776C46.6564 36.128 47.1124 36.304 47.6884 36.304C48.0404 36.304 48.3484 36.248 48.6124 36.136C48.8764 36.024 49.1324 35.832 49.3804 35.56L49.9924 36.1C49.6484 36.444 49.2964 36.696 48.9364 36.856C48.5764 37.016 48.1604 37.096 47.6884 37.096C47.1044 37.096 46.6044 36.964 46.1884 36.7C45.7804 36.436 45.4724 36.076 45.2644 35.62C45.0564 35.164 44.9524 34.652 44.9524 34.084C44.9524 33.516 45.0524 32.996 45.2524 32.524C45.4604 32.052 45.7604 31.68 46.1524 31.408C46.5524 31.128 47.0324 30.988 47.5924 30.988C48.1684 30.988 48.6484 31.12 49.0324 31.384C49.4164 31.648 49.7004 31.992 49.8844 32.416C50.0684 32.832 50.1604 33.28 50.1604 33.76ZM49.3324 33.616L49.3444 33.496C49.3524 33.2 49.2924 32.916 49.1644 32.644C49.0364 32.372 48.8364 32.152 48.5644 31.984C48.3004 31.808 47.9724 31.72 47.5804 31.72C47.0604 31.72 46.6444 31.9 46.3324 32.26C46.0204 32.62 45.8444 33.072 45.8044 33.616H49.3324Z" fill="#B7BBC2"/>
<rect x="0.5" y="0.5" width="63" height="45" rx="6.5" stroke="#EDF0F4"/>
<path d="M91.976 10.13C92.592 10.13 93.1613 10.2747 93.684 10.564C94.2067 10.844 94.622 11.236 94.93 11.74C95.238 12.2347 95.392 12.79 95.392 13.406C95.392 14.0407 95.2193 14.6333 94.874 15.184L91.948 20H90.52L92.732 16.458C92.4333 16.5793 92.1253 16.64 91.808 16.64C91.2107 16.64 90.6647 16.5 90.17 16.22C89.6753 15.9307 89.2833 15.5433 88.994 15.058C88.7047 14.5633 88.56 14.0173 88.56 13.42C88.56 12.804 88.714 12.244 89.022 11.74C89.33 11.236 89.7453 10.844 90.268 10.564C90.7907 10.2747 91.36 10.13 91.976 10.13ZM91.976 15.534C92.368 15.534 92.7273 15.4453 93.054 15.268C93.3807 15.0813 93.6373 14.8293 93.824 14.512C94.02 14.1853 94.118 13.8213 94.118 13.42C94.118 13.0187 94.02 12.6593 93.824 12.342C93.6373 12.0153 93.3807 11.7633 93.054 11.586C92.7273 11.4087 92.368 11.32 91.976 11.32C91.584 11.32 91.2247 11.4087 90.898 11.586C90.5713 11.7633 90.31 12.0153 90.114 12.342C89.9273 12.6593 89.834 13.0187 89.834 13.42C89.834 13.8213 89.9273 14.1853 90.114 14.512C90.31 14.8293 90.5713 15.0813 90.898 15.268C91.2247 15.4453 91.584 15.534 91.976 15.534ZM103.357 20.112C102.713 20.112 102.134 19.9627 101.621 19.664C101.108 19.356 100.706 18.9313 100.417 18.39C100.128 17.8487 99.9831 17.2327 99.9831 16.542C99.9831 15.8513 100.128 15.24 100.417 14.708C100.706 14.1667 101.103 13.7467 101.607 13.448C102.12 13.14 102.704 12.986 103.357 12.986C104.001 12.986 104.58 13.14 105.093 13.448C105.606 13.7467 106.008 14.1667 106.297 14.708C106.586 15.2493 106.731 15.8607 106.731 16.542C106.731 17.2233 106.586 17.8347 106.297 18.376C106.008 18.9173 105.606 19.342 105.093 19.65C104.58 19.958 104.001 20.112 103.357 20.112ZM103.357 19.02C104.001 19.02 104.514 18.796 104.897 18.348C105.289 17.9 105.485 17.298 105.485 16.542C105.485 15.786 105.289 15.1887 104.897 14.75C104.514 14.302 104.001 14.078 103.357 14.078C102.704 14.078 102.186 14.302 101.803 14.75C101.43 15.1887 101.243 15.786 101.243 16.542C101.243 17.298 101.434 17.9 101.817 18.348C102.2 18.796 102.713 19.02 103.357 19.02ZM114.096 13.098L111.618 15.646L114.46 20H112.976L110.708 16.5L109.518 17.774V20H108.272V10.242H109.518V16.22L112.43 13.098H114.096ZM119.013 14.078H117.305V18.096C117.305 18.404 117.366 18.6513 117.487 18.838C117.608 19.0153 117.837 19.104 118.173 19.104C118.406 19.104 118.686 19.0527 119.013 18.95V19.93C118.64 20.0513 118.262 20.112 117.879 20.112C117.328 20.112 116.89 19.9627 116.563 19.664C116.236 19.356 116.073 18.8707 116.073 18.208V14.078H114.925V13.098H116.073V11.278L117.305 10.578V13.098H119.013V14.078Z" fill="#101825"/>
<path d="M92.828 28.636H93.68V37H92.828V36.076C92.604 36.412 92.32 36.668 91.976 36.844C91.632 37.012 91.244 37.096 90.812 37.096C90.284 37.096 89.816 36.964 89.408 36.7C89 36.428 88.684 36.06 88.46 35.596C88.236 35.132 88.124 34.612 88.124 34.036C88.124 33.436 88.24 32.908 88.472 32.452C88.712 31.988 89.036 31.628 89.444 31.372C89.852 31.116 90.308 30.988 90.812 30.988C91.252 30.988 91.644 31.08 91.988 31.264C92.332 31.44 92.612 31.696 92.828 32.032V28.636ZM90.956 36.304C91.332 36.304 91.668 36.208 91.964 36.016C92.26 35.816 92.488 35.544 92.648 35.2C92.816 34.856 92.9 34.468 92.9 34.036C92.9 33.604 92.816 33.216 92.648 32.872C92.488 32.528 92.26 32.26 91.964 32.068C91.668 31.876 91.332 31.78 90.956 31.78C90.58 31.78 90.24 31.876 89.936 32.068C89.64 32.26 89.408 32.528 89.24 32.872C89.072 33.216 88.988 33.604 88.988 34.036C88.988 34.468 89.072 34.856 89.24 35.2C89.408 35.544 89.64 35.816 89.936 36.016C90.24 36.208 90.58 36.304 90.956 36.304ZM99.1181 31.084H99.9821V37H99.1181V36.04C98.7581 36.744 98.1501 37.096 97.2941 37.096C96.6381 37.096 96.1301 36.904 95.7701 36.52C95.4101 36.128 95.2301 35.552 95.2301 34.792V31.084H96.0821V34.492C96.0821 35.124 96.1981 35.592 96.4301 35.896C96.6701 36.192 97.0261 36.34 97.4981 36.34C98.5781 36.34 99.1181 35.584 99.1181 34.072V31.084ZM96.9701 29.968H96.0461V28.636H96.9701V29.968ZM99.1421 29.968H98.2301V28.636H99.1421V29.968ZM104.459 30.988C105.115 30.988 105.623 31.184 105.983 31.576C106.343 31.96 106.523 32.532 106.523 33.292V37H105.671V33.592C105.671 32.96 105.551 32.496 105.311 32.2C105.079 31.896 104.727 31.744 104.255 31.744C103.175 31.744 102.635 32.5 102.635 34.012V37H101.771V31.084H102.635V32.044C102.995 31.34 103.603 30.988 104.459 30.988ZM110.366 30.988C110.95 30.988 111.446 31.12 111.854 31.384C112.27 31.648 112.582 32.008 112.79 32.464C112.998 32.92 113.102 33.432 113.102 34C113.102 34.568 112.998 35.088 112.79 35.56C112.59 36.024 112.29 36.396 111.89 36.676C111.498 36.956 111.022 37.096 110.462 37.096C109.886 37.096 109.402 36.968 109.01 36.712C108.626 36.448 108.342 36.104 108.158 35.68C107.974 35.256 107.882 34.804 107.882 34.324C107.882 34.14 107.894 33.964 107.918 33.796H112.238C112.222 33.164 112.046 32.668 111.71 32.308C111.382 31.948 110.93 31.768 110.354 31.768C110.002 31.768 109.694 31.828 109.43 31.948C109.174 32.06 108.918 32.252 108.662 32.524L108.062 31.984C108.39 31.632 108.734 31.38 109.094 31.228C109.462 31.068 109.886 30.988 110.366 30.988ZM110.474 36.364C110.994 36.364 111.406 36.184 111.71 35.824C112.022 35.464 112.202 35.012 112.25 34.468H108.71V34.588C108.702 34.884 108.758 35.168 108.878 35.44C109.006 35.712 109.202 35.936 109.466 36.112C109.738 36.28 110.074 36.364 110.474 36.364ZM117.314 30.988C117.97 30.988 118.478 31.184 118.838 31.576C119.198 31.96 119.378 32.532 119.378 33.292V37H118.526V33.592C118.526 32.96 118.406 32.496 118.166 32.2C117.934 31.896 117.582 31.744 117.11 31.744C116.03 31.744 115.49 32.5 115.49 34.012V37H114.626V31.084H115.49V32.044C115.85 31.34 116.458 30.988 117.314 30.988Z" fill="#B7BBC2"/>
<rect x="72.5" y="0.5" width="63" height="45" rx="6.5" stroke="#EDF0F4"/>
<rect x="144" width="64" height="46" rx="7" fill="#4CB147"/>
<path d="M160.102 10.242H161.362V20H160.102V12.846H157.568V11.796H159.234C159.533 11.796 159.752 11.7353 159.892 11.614C160.032 11.4833 160.102 11.2687 160.102 10.97V10.242ZM167.861 20.112C165.714 20.112 164.641 18.4367 164.641 15.086C164.641 11.7727 165.7 10.116 167.819 10.116C169.032 10.116 169.872 10.592 170.339 11.544C170.806 12.496 171.039 13.6813 171.039 15.1C171.039 16.5373 170.806 17.732 170.339 18.684C169.872 19.636 169.046 20.112 167.861 20.112ZM167.861 18.908C169.121 18.908 169.751 17.6527 169.751 15.142C169.751 13.938 169.602 13 169.303 12.328C169.004 11.656 168.51 11.32 167.819 11.32C167.11 11.32 166.615 11.6653 166.335 12.356C166.064 13.0373 165.929 13.9613 165.929 15.128C165.929 16.276 166.069 17.1953 166.349 17.886C166.638 18.5673 167.142 18.908 167.861 18.908ZM179.214 20.112C178.57 20.112 177.991 19.9627 177.478 19.664C176.965 19.356 176.563 18.9313 176.274 18.39C175.985 17.8487 175.84 17.2327 175.84 16.542C175.84 15.8513 175.985 15.24 176.274 14.708C176.563 14.1667 176.96 13.7467 177.464 13.448C177.977 13.14 178.561 12.986 179.214 12.986C179.858 12.986 180.437 13.14 180.95 13.448C181.463 13.7467 181.865 14.1667 182.154 14.708C182.443 15.2493 182.588 15.8607 182.588 16.542C182.588 17.2233 182.443 17.8347 182.154 18.376C181.865 18.9173 181.463 19.342 180.95 19.65C180.437 19.958 179.858 20.112 179.214 20.112ZM179.214 19.02C179.858 19.02 180.371 18.796 180.754 18.348C181.146 17.9 181.342 17.298 181.342 16.542C181.342 15.786 181.146 15.1887 180.754 14.75C180.371 14.302 179.858 14.078 179.214 14.078C178.561 14.078 178.043 14.302 177.66 14.75C177.287 15.1887 177.1 15.786 177.1 16.542C177.1 17.298 177.291 17.9 177.674 18.348C178.057 18.796 178.57 19.02 179.214 19.02ZM189.953 13.098L187.475 15.646L190.317 20H188.833L186.565 16.5L185.375 17.774V20H184.129V10.242H185.375V16.22L188.287 13.098H189.953ZM194.87 14.078H193.162V18.096C193.162 18.404 193.223 18.6513 193.344 18.838C193.465 19.0153 193.694 19.104 194.03 19.104C194.263 19.104 194.543 19.0527 194.87 18.95V19.93C194.497 20.0513 194.119 20.112 193.736 20.112C193.185 20.112 192.747 19.9627 192.42 19.664C192.093 19.356 191.93 18.8707 191.93 18.208V14.078H190.782V13.098H191.93V11.278L193.162 10.578V13.098H194.87V14.078Z" fill="white"/>
<path d="M161.768 30.988C162.272 30.988 162.728 31.116 163.136 31.372C163.544 31.628 163.864 31.988 164.096 32.452C164.336 32.908 164.456 33.436 164.456 34.036C164.456 34.612 164.344 35.132 164.12 35.596C163.896 36.06 163.58 36.428 163.172 36.7C162.764 36.964 162.296 37.096 161.768 37.096C161.336 37.096 160.948 37.012 160.604 36.844C160.26 36.668 159.976 36.412 159.752 36.076V37H158.9V28.636H159.752V32.032C159.968 31.696 160.248 31.44 160.592 31.264C160.936 31.08 161.328 30.988 161.768 30.988ZM161.636 36.304C162.012 36.304 162.348 36.208 162.644 36.016C162.94 35.816 163.172 35.544 163.34 35.2C163.508 34.856 163.592 34.468 163.592 34.036C163.592 33.604 163.508 33.216 163.34 32.872C163.172 32.528 162.94 32.26 162.644 32.068C162.348 31.876 162.012 31.78 161.636 31.78C161.26 31.78 160.92 31.876 160.616 32.068C160.32 32.26 160.088 32.528 159.92 32.872C159.76 33.216 159.68 33.604 159.68 34.036C159.68 34.468 159.76 34.86 159.92 35.212C160.088 35.556 160.32 35.824 160.616 36.016C160.92 36.208 161.26 36.304 161.636 36.304ZM169.688 31.084H170.552V37H169.688V36.04C169.328 36.744 168.72 37.096 167.864 37.096C167.208 37.096 166.7 36.904 166.34 36.52C165.98 36.128 165.8 35.552 165.8 34.792V31.084H166.652V34.492C166.652 35.124 166.768 35.592 167 35.896C167.24 36.192 167.596 36.34 168.068 36.34C169.148 36.34 169.688 35.584 169.688 34.072V31.084ZM177.534 36.28C178.182 36.368 178.682 36.456 179.034 36.544C179.394 36.632 179.694 36.784 179.934 37C180.174 37.208 180.294 37.504 180.294 37.888C180.294 38.424 180.066 38.832 179.61 39.112C179.162 39.4 178.522 39.544 177.69 39.544C176.898 39.544 176.266 39.388 175.794 39.076C175.322 38.764 175.086 38.332 175.086 37.78C175.086 37.676 175.098 37.568 175.122 37.456L176.118 36.7C175.534 36.46 175.242 36.068 175.242 35.524C175.242 35.06 175.442 34.688 175.842 34.408C175.506 34.048 175.338 33.6 175.338 33.064C175.338 32.664 175.438 32.308 175.638 31.996C175.838 31.676 176.106 31.428 176.442 31.252C176.786 31.076 177.166 30.988 177.582 30.988C178.166 30.988 178.662 31.156 179.07 31.492L180.018 30.688L180.462 31.24L179.538 32.044C179.722 32.348 179.814 32.7 179.814 33.1C179.814 33.7 179.61 34.184 179.202 34.552C178.794 34.912 178.262 35.092 177.606 35.092C177.15 35.092 176.75 35 176.406 34.816C176.158 34.992 176.034 35.2 176.034 35.44C176.034 35.704 176.154 35.892 176.394 36.004C176.634 36.108 177.014 36.2 177.534 36.28ZM177.594 31.72C177.178 31.72 176.842 31.844 176.586 32.092C176.33 32.34 176.202 32.664 176.202 33.064C176.202 33.456 176.326 33.78 176.574 34.036C176.83 34.284 177.17 34.408 177.594 34.408C178.01 34.408 178.338 34.284 178.578 34.036C178.826 33.78 178.95 33.456 178.95 33.064C178.95 32.664 178.826 32.34 178.578 32.092C178.33 31.844 178.002 31.72 177.594 31.72ZM177.69 38.896C178.85 38.896 179.43 38.592 179.43 37.984C179.43 37.768 179.346 37.596 179.178 37.468C179.018 37.348 178.81 37.26 178.554 37.204C178.306 37.148 177.918 37.08 177.39 37L176.73 36.892L175.962 37.648C175.954 37.68 175.95 37.732 175.95 37.804C175.95 38.156 176.106 38.424 176.418 38.608C176.73 38.8 177.154 38.896 177.69 38.896ZM185.309 31.084H186.173V37H185.309V36.04C184.949 36.744 184.341 37.096 183.485 37.096C182.829 37.096 182.321 36.904 181.961 36.52C181.601 36.128 181.421 35.552 181.421 34.792V31.084H182.273V34.492C182.273 35.124 182.389 35.592 182.621 35.896C182.861 36.192 183.217 36.34 183.689 36.34C184.769 36.34 185.309 35.584 185.309 34.072V31.084ZM183.161 29.968H182.237V28.636H183.161V29.968ZM185.333 29.968H184.421V28.636H185.333V29.968ZM190.65 30.988C191.306 30.988 191.814 31.184 192.174 31.576C192.534 31.96 192.714 32.532 192.714 33.292V37H191.862V33.592C191.862 32.96 191.742 32.496 191.502 32.2C191.27 31.896 190.918 31.744 190.446 31.744C189.366 31.744 188.826 32.5 188.826 34.012V37H187.962V31.084H188.826V32.044C189.186 31.34 189.794 30.988 190.65 30.988Z" fill="white"/>
<path d="M232.102 10.242H233.362V20H232.102V12.846H229.568V11.796H231.234C231.533 11.796 231.752 11.7353 231.892 11.614C232.032 11.4833 232.102 11.2687 232.102 10.97V10.242ZM239.959 10.242H241.219V20H239.959V12.846H237.425V11.796H239.091C239.39 11.796 239.609 11.7353 239.749 11.614C239.889 11.4833 239.959 11.2687 239.959 10.97V10.242ZM251.214 20.112C250.57 20.112 249.991 19.9627 249.478 19.664C248.965 19.356 248.563 18.9313 248.274 18.39C247.985 17.8487 247.84 17.2327 247.84 16.542C247.84 15.8513 247.985 15.24 248.274 14.708C248.563 14.1667 248.96 13.7467 249.464 13.448C249.977 13.14 250.561 12.986 251.214 12.986C251.858 12.986 252.437 13.14 252.95 13.448C253.463 13.7467 253.865 14.1667 254.154 14.708C254.443 15.2493 254.588 15.8607 254.588 16.542C254.588 17.2233 254.443 17.8347 254.154 18.376C253.865 18.9173 253.463 19.342 252.95 19.65C252.437 19.958 251.858 20.112 251.214 20.112ZM251.214 19.02C251.858 19.02 252.371 18.796 252.754 18.348C253.146 17.9 253.342 17.298 253.342 16.542C253.342 15.786 253.146 15.1887 252.754 14.75C252.371 14.302 251.858 14.078 251.214 14.078C250.561 14.078 250.043 14.302 249.66 14.75C249.287 15.1887 249.1 15.786 249.1 16.542C249.1 17.298 249.291 17.9 249.674 18.348C250.057 18.796 250.57 19.02 251.214 19.02ZM261.953 13.098L259.475 15.646L262.317 20H260.833L258.565 16.5L257.375 17.774V20H256.129V10.242H257.375V16.22L260.287 13.098H261.953ZM266.87 14.078H265.162V18.096C265.162 18.404 265.223 18.6513 265.344 18.838C265.465 19.0153 265.694 19.104 266.03 19.104C266.263 19.104 266.543 19.0527 266.87 18.95V19.93C266.497 20.0513 266.119 20.112 265.736 20.112C265.185 20.112 264.747 19.9627 264.42 19.664C264.093 19.356 263.93 18.8707 263.93 18.208V14.078H262.782V13.098H263.93V11.278L265.162 10.578V13.098H266.87V14.078Z" fill="#101825"/>
<path d="M234.952 37.096C234.424 37.096 233.952 36.98 233.536 36.748C233.12 36.516 232.784 36.188 232.528 35.764L233.128 35.26C233.304 35.612 233.556 35.888 233.884 36.088C234.22 36.28 234.596 36.376 235.012 36.376C235.412 36.376 235.724 36.288 235.948 36.112C236.18 35.936 236.296 35.692 236.296 35.38C236.296 35.148 236.232 34.964 236.104 34.828C235.976 34.684 235.808 34.576 235.6 34.504C235.4 34.424 235.112 34.336 234.736 34.24C234.32 34.136 233.976 34.032 233.704 33.928C233.44 33.816 233.216 33.652 233.032 33.436C232.848 33.22 232.756 32.936 232.756 32.584C232.756 32.112 232.944 31.728 233.32 31.432C233.704 31.136 234.192 30.988 234.784 30.988C235.744 30.988 236.46 31.36 236.932 32.104L236.332 32.56C235.948 31.976 235.424 31.684 234.76 31.684C234.408 31.684 234.12 31.76 233.896 31.912C233.672 32.064 233.56 32.272 233.56 32.536C233.56 32.8 233.668 32.992 233.884 33.112C234.108 33.224 234.472 33.344 234.976 33.472C235.432 33.584 235.8 33.696 236.08 33.808C236.368 33.92 236.616 34.096 236.824 34.336C237.032 34.568 237.136 34.888 237.136 35.296C237.136 35.84 236.936 36.276 236.536 36.604C236.136 36.932 235.608 37.096 234.952 37.096ZM240.9 30.988C241.668 30.988 242.256 31.192 242.664 31.6C243.08 32 243.288 32.572 243.288 33.316V37H242.496L242.448 36.064C242.232 36.408 241.944 36.668 241.584 36.844C241.224 37.012 240.828 37.096 240.396 37.096C239.756 37.096 239.244 36.928 238.86 36.592C238.484 36.256 238.296 35.812 238.296 35.26C238.296 34.668 238.528 34.22 238.992 33.916C239.416 33.652 239.992 33.52 240.72 33.52H242.436V33.316C242.436 32.804 242.3 32.416 242.028 32.152C241.764 31.88 241.372 31.744 240.852 31.744C240.492 31.744 240.172 31.816 239.892 31.96C239.612 32.096 239.34 32.324 239.076 32.644L238.452 32.116C239.068 31.364 239.884 30.988 240.9 30.988ZM240.468 36.388C240.836 36.388 241.168 36.308 241.464 36.148C241.768 35.98 242.004 35.752 242.172 35.464C242.348 35.168 242.436 34.84 242.436 34.48V34.204H240.828C240.292 34.204 239.884 34.288 239.604 34.456C239.308 34.632 239.16 34.904 239.16 35.272C239.16 35.608 239.28 35.88 239.52 36.088C239.76 36.288 240.076 36.388 240.468 36.388ZM247.873 30.988C248.377 30.988 248.833 31.116 249.241 31.372C249.649 31.628 249.969 31.988 250.201 32.452C250.441 32.908 250.561 33.436 250.561 34.036C250.561 34.612 250.449 35.132 250.225 35.596C250.001 36.06 249.685 36.428 249.277 36.7C248.869 36.964 248.401 37.096 247.873 37.096C247.441 37.096 247.053 37.012 246.709 36.844C246.365 36.668 246.081 36.412 245.857 36.076V37H245.005V28.636H245.857V32.032C246.073 31.696 246.353 31.44 246.697 31.264C247.041 31.08 247.433 30.988 247.873 30.988ZM247.741 36.304C248.117 36.304 248.453 36.208 248.749 36.016C249.045 35.816 249.277 35.544 249.445 35.2C249.613 34.856 249.697 34.468 249.697 34.036C249.697 33.604 249.613 33.216 249.445 32.872C249.277 32.528 249.045 32.26 248.749 32.068C248.453 31.876 248.117 31.78 247.741 31.78C247.365 31.78 247.025 31.876 246.721 32.068C246.425 32.26 246.193 32.528 246.025 32.872C245.865 33.216 245.785 33.604 245.785 34.036C245.785 34.468 245.865 34.86 246.025 35.212C246.193 35.556 246.425 35.824 246.721 36.016C247.025 36.208 247.365 36.304 247.741 36.304ZM254.282 30.988C255.05 30.988 255.638 31.192 256.046 31.6C256.462 32 256.67 32.572 256.67 33.316V37H255.878L255.83 36.064C255.614 36.408 255.326 36.668 254.966 36.844C254.606 37.012 254.21 37.096 253.778 37.096C253.138 37.096 252.626 36.928 252.242 36.592C251.866 36.256 251.678 35.812 251.678 35.26C251.678 34.668 251.91 34.22 252.374 33.916C252.798 33.652 253.374 33.52 254.102 33.52H255.818V33.316C255.818 32.804 255.682 32.416 255.41 32.152C255.146 31.88 254.754 31.744 254.234 31.744C253.874 31.744 253.554 31.816 253.274 31.96C252.994 32.096 252.722 32.324 252.458 32.644L251.834 32.116C252.45 31.364 253.266 30.988 254.282 30.988ZM253.85 36.388C254.218 36.388 254.55 36.308 254.846 36.148C255.15 35.98 255.386 35.752 255.554 35.464C255.73 35.168 255.818 34.84 255.818 34.48V34.204H254.21C253.674 34.204 253.266 34.288 252.986 34.456C252.69 34.632 252.542 34.904 252.542 35.272C252.542 35.608 252.662 35.88 252.902 36.088C253.142 36.288 253.458 36.388 253.85 36.388ZM261.064 30.988C261.736 30.988 262.248 31.188 262.6 31.588C262.952 31.98 263.128 32.548 263.128 33.292V37H262.276V33.592C262.276 32.968 262.156 32.504 261.916 32.2C261.684 31.896 261.332 31.744 260.86 31.744C259.78 31.744 259.24 32.5 259.24 34.012V37H258.376V28.636H259.24V32.044C259.592 31.34 260.2 30.988 261.064 30.988Z" fill="#B7BBC2"/>
<rect x="216.5" y="0.5" width="63" height="45" rx="6.5" stroke="#EDF0F4"/>
<path d="M304.102 10.242H305.362V20H304.102V12.846H301.568V11.796H303.234C303.533 11.796 303.752 11.7353 303.892 11.614C304.032 11.4833 304.102 11.2687 304.102 10.97V10.242ZM315.179 18.838V20H308.641V18.908C308.828 18.7773 308.968 18.6747 309.061 18.6C309.892 18.0213 310.615 17.4753 311.231 16.962C311.847 16.4487 312.388 15.8607 312.855 15.198C313.322 14.5353 313.555 13.8587 313.555 13.168C313.555 12.6173 313.401 12.1787 313.093 11.852C312.794 11.5253 312.36 11.362 311.791 11.362C311.156 11.362 310.676 11.5767 310.349 12.006C310.032 12.426 309.864 12.972 309.845 13.644L308.627 13.546C308.627 12.93 308.748 12.3653 308.991 11.852C309.243 11.3293 309.612 10.914 310.097 10.606C310.582 10.298 311.156 10.144 311.819 10.144C312.407 10.144 312.925 10.27 313.373 10.522C313.821 10.7647 314.166 11.1147 314.409 11.572C314.661 12.02 314.787 12.5427 314.787 13.14C314.787 13.868 314.6 14.5587 314.227 15.212C313.863 15.8653 313.382 16.472 312.785 17.032C312.188 17.592 311.45 18.194 310.573 18.838H315.179ZM323.214 20.112C322.57 20.112 321.991 19.9627 321.478 19.664C320.965 19.356 320.563 18.9313 320.274 18.39C319.985 17.8487 319.84 17.2327 319.84 16.542C319.84 15.8513 319.985 15.24 320.274 14.708C320.563 14.1667 320.96 13.7467 321.464 13.448C321.977 13.14 322.561 12.986 323.214 12.986C323.858 12.986 324.437 13.14 324.95 13.448C325.463 13.7467 325.865 14.1667 326.154 14.708C326.443 15.2493 326.588 15.8607 326.588 16.542C326.588 17.2233 326.443 17.8347 326.154 18.376C325.865 18.9173 325.463 19.342 324.95 19.65C324.437 19.958 323.858 20.112 323.214 20.112ZM323.214 19.02C323.858 19.02 324.371 18.796 324.754 18.348C325.146 17.9 325.342 17.298 325.342 16.542C325.342 15.786 325.146 15.1887 324.754 14.75C324.371 14.302 323.858 14.078 323.214 14.078C322.561 14.078 322.043 14.302 321.66 14.75C321.287 15.1887 321.1 15.786 321.1 16.542C321.1 17.298 321.291 17.9 321.674 18.348C322.057 18.796 322.57 19.02 323.214 19.02ZM333.953 13.098L331.475 15.646L334.317 20H332.833L330.565 16.5L329.375 17.774V20H328.129V10.242H329.375V16.22L332.287 13.098H333.953ZM338.87 14.078H337.162V18.096C337.162 18.404 337.223 18.6513 337.344 18.838C337.465 19.0153 337.694 19.104 338.03 19.104C338.263 19.104 338.543 19.0527 338.87 18.95V19.93C338.497 20.0513 338.119 20.112 337.736 20.112C337.185 20.112 336.747 19.9627 336.42 19.664C336.093 19.356 335.93 18.8707 335.93 18.208V14.078H334.782V13.098H335.93V11.278L337.162 10.578V13.098H338.87V14.078Z" fill="#101825"/>
<path d="M308.812 37.096C308.26 37.096 307.78 36.964 307.372 36.7C306.964 36.428 306.652 36.06 306.436 35.596C306.228 35.132 306.124 34.616 306.124 34.048C306.124 33.512 306.224 33.012 306.424 32.548C306.624 32.084 306.924 31.708 307.324 31.42C307.732 31.132 308.224 30.988 308.8 30.988C309.352 30.988 309.832 31.128 310.24 31.408C310.656 31.688 310.976 32.092 311.2 32.62L310.432 32.92C310.288 32.552 310.076 32.264 309.796 32.056C309.516 31.848 309.184 31.744 308.8 31.744C308.208 31.744 307.756 31.968 307.444 32.416C307.132 32.864 306.976 33.408 306.976 34.048C306.976 34.696 307.132 35.24 307.444 35.68C307.764 36.12 308.22 36.34 308.812 36.34C309.204 36.34 309.536 36.236 309.808 36.028C310.08 35.82 310.276 35.532 310.396 35.164L311.164 35.464C310.964 35.992 310.66 36.396 310.252 36.676C309.852 36.956 309.372 37.096 308.812 37.096ZM316.274 31.084H317.138V37H316.274V36.04C315.914 36.744 315.306 37.096 314.45 37.096C313.794 37.096 313.286 36.904 312.926 36.52C312.566 36.128 312.386 35.552 312.386 34.792V31.084H313.238V34.492C313.238 35.124 313.354 35.592 313.586 35.896C313.826 36.192 314.182 36.34 314.654 36.34C315.734 36.34 316.274 35.584 316.274 34.072V31.084ZM314.126 29.968H313.202V28.636H314.126V29.968ZM316.298 29.968H315.386V28.636H316.298V29.968ZM324.999 30.988C325.719 30.988 326.243 31.212 326.571 31.66C326.907 32.108 327.075 32.7 327.075 33.436V37H326.211V33.64C326.211 33.024 326.107 32.556 325.899 32.236C325.691 31.908 325.351 31.744 324.879 31.744C324.423 31.744 324.067 31.916 323.811 32.26C323.555 32.604 323.427 33.108 323.427 33.772V37H322.575V33.544C322.575 32.344 322.139 31.744 321.267 31.744C320.803 31.744 320.443 31.92 320.187 32.272C319.931 32.616 319.803 33.116 319.803 33.772V37H318.927V31.084H319.755V31.996C319.931 31.652 320.167 31.4 320.463 31.24C320.759 31.072 321.087 30.988 321.447 30.988C322.271 30.988 322.835 31.312 323.139 31.96C323.355 31.624 323.623 31.38 323.943 31.228C324.263 31.068 324.615 30.988 324.999 30.988ZM330.92 30.988C331.504 30.988 332 31.12 332.408 31.384C332.824 31.648 333.136 32.008 333.344 32.464C333.552 32.92 333.656 33.432 333.656 34C333.656 34.568 333.552 35.088 333.344 35.56C333.144 36.024 332.844 36.396 332.444 36.676C332.052 36.956 331.576 37.096 331.016 37.096C330.44 37.096 329.956 36.968 329.564 36.712C329.18 36.448 328.896 36.104 328.712 35.68C328.528 35.256 328.436 34.804 328.436 34.324C328.436 34.14 328.448 33.964 328.472 33.796H332.792C332.776 33.164 332.6 32.668 332.264 32.308C331.936 31.948 331.484 31.768 330.908 31.768C330.556 31.768 330.248 31.828 329.984 31.948C329.728 32.06 329.472 32.252 329.216 32.524L328.616 31.984C328.944 31.632 329.288 31.38 329.648 31.228C330.016 31.068 330.44 30.988 330.92 30.988ZM331.028 36.364C331.548 36.364 331.96 36.184 332.264 35.824C332.576 35.464 332.756 35.012 332.804 34.468H329.264V34.588C329.256 34.884 329.312 35.168 329.432 35.44C329.56 35.712 329.756 35.936 330.02 36.112C330.292 36.28 330.628 36.364 331.028 36.364Z" fill="#B7BBC2"/>
<rect x="288.5" y="0.5" width="63" height="45" rx="6.5" stroke="#EDF0F4"/>
<rect y="62" width="64" height="30" rx="7" fill="#EDF0F4"/>
<path d="M18.504 82.112C16.3573 82.112 15.284 80.4367 15.284 77.086C15.284 73.7727 16.3433 72.116 18.462 72.116C19.6753 72.116 20.5153 72.592 20.982 73.544C21.4487 74.496 21.682 75.6813 21.682 77.1C21.682 78.5373 21.4487 79.732 20.982 80.684C20.5153 81.636 19.6893 82.112 18.504 82.112ZM18.504 80.908C19.764 80.908 20.394 79.6527 20.394 77.142C20.394 75.938 20.2447 75 19.946 74.328C19.6473 73.656 19.1527 73.32 18.462 73.32C17.7527 73.32 17.258 73.6653 16.978 74.356C16.7073 75.0373 16.572 75.9613 16.572 77.128C16.572 78.276 16.712 79.1953 16.992 79.886C17.2813 80.5673 17.7853 80.908 18.504 80.908ZM26.333 72.13C26.949 72.13 27.5184 72.2747 28.041 72.564C28.5637 72.844 28.979 73.236 29.287 73.74C29.595 74.2347 29.749 74.79 29.749 75.406C29.749 76.0407 29.5764 76.6333 29.231 77.184L26.305 82H24.877L27.089 78.458C26.7904 78.5793 26.4824 78.64 26.165 78.64C25.5677 78.64 25.0217 78.5 24.527 78.22C24.0324 77.9307 23.6404 77.5433 23.351 77.058C23.0617 76.5633 22.917 76.0173 22.917 75.42C22.917 74.804 23.071 74.244 23.379 73.74C23.687 73.236 24.1024 72.844 24.625 72.564C25.1477 72.2747 25.717 72.13 26.333 72.13ZM26.333 77.534C26.725 77.534 27.0844 77.4453 27.411 77.268C27.7377 77.0813 27.9944 76.8293 28.181 76.512C28.377 76.1853 28.475 75.8213 28.475 75.42C28.475 75.0187 28.377 74.6593 28.181 74.342C27.9944 74.0153 27.7377 73.7633 27.411 73.586C27.0844 73.4087 26.725 73.32 26.333 73.32C25.941 73.32 25.5817 73.4087 25.255 73.586C24.9284 73.7633 24.667 74.0153 24.471 74.342C24.2844 74.6593 24.191 75.0187 24.191 75.42C24.191 75.8213 24.2844 76.1853 24.471 76.512C24.667 76.8293 24.9284 77.0813 25.255 77.268C25.5817 77.4453 25.941 77.534 26.333 77.534ZM32.4961 77.072H31.1661V75.406H32.4961V77.072ZM32.4961 82H31.1661V80.348H32.4961V82ZM37.3583 82.112C35.2116 82.112 34.1383 80.4367 34.1383 77.086C34.1383 73.7727 35.1976 72.116 37.3163 72.116C38.5296 72.116 39.3696 72.592 39.8363 73.544C40.303 74.496 40.5363 75.6813 40.5363 77.1C40.5363 78.5373 40.303 79.732 39.8363 80.684C39.3696 81.636 38.5436 82.112 37.3583 82.112ZM37.3583 80.908C38.6183 80.908 39.2483 79.6527 39.2483 77.142C39.2483 75.938 39.099 75 38.8003 74.328C38.5016 73.656 38.007 73.32 37.3163 73.32C36.607 73.32 36.1123 73.6653 35.8323 74.356C35.5616 75.0373 35.4263 75.9613 35.4263 77.128C35.4263 78.276 35.5663 79.1953 35.8463 79.886C36.1356 80.5673 36.6396 80.908 37.3583 80.908ZM45.2153 82.112C43.0687 82.112 41.9953 80.4367 41.9953 77.086C41.9953 73.7727 43.0547 72.116 45.1733 72.116C46.3867 72.116 47.2267 72.592 47.6933 73.544C48.16 74.496 48.3933 75.6813 48.3933 77.1C48.3933 78.5373 48.16 79.732 47.6933 80.684C47.2267 81.636 46.4007 82.112 45.2153 82.112ZM45.2153 80.908C46.4753 80.908 47.1053 79.6527 47.1053 77.142C47.1053 75.938 46.956 75 46.6573 74.328C46.3587 73.656 45.864 73.32 45.1733 73.32C44.464 73.32 43.9693 73.6653 43.6893 74.356C43.4187 75.0373 43.2833 75.9613 43.2833 77.128C43.2833 78.276 43.4233 79.1953 43.7033 79.886C43.9927 80.5673 44.4967 80.908 45.2153 80.908Z" fill="#101825"/>
<rect x="72" y="62" width="64" height="30" rx="7" fill="#EDF0F4"/>
<path d="M90.504 82.112C88.3573 82.112 87.284 80.4367 87.284 77.086C87.284 73.7727 88.3433 72.116 90.462 72.116C91.6753 72.116 92.5153 72.592 92.982 73.544C93.4487 74.496 93.682 75.6813 93.682 77.1C93.682 78.5373 93.4487 79.732 92.982 80.684C92.5153 81.636 91.6893 82.112 90.504 82.112ZM90.504 80.908C91.764 80.908 92.394 79.6527 92.394 77.142C92.394 75.938 92.2447 75 91.946 74.328C91.6473 73.656 91.1527 73.32 90.462 73.32C89.7527 73.32 89.258 73.6653 88.978 74.356C88.7073 75.0373 88.572 75.9613 88.572 77.128C88.572 78.276 88.712 79.1953 88.992 79.886C89.2813 80.5673 89.7853 80.908 90.504 80.908ZM98.333 72.13C98.949 72.13 99.5184 72.2747 100.041 72.564C100.564 72.844 100.979 73.236 101.287 73.74C101.595 74.2347 101.749 74.79 101.749 75.406C101.749 76.0407 101.576 76.6333 101.231 77.184L98.305 82H96.877L99.089 78.458C98.7904 78.5793 98.4824 78.64 98.165 78.64C97.5677 78.64 97.0217 78.5 96.527 78.22C96.0324 77.9307 95.6404 77.5433 95.351 77.058C95.0617 76.5633 94.917 76.0173 94.917 75.42C94.917 74.804 95.071 74.244 95.379 73.74C95.687 73.236 96.1024 72.844 96.625 72.564C97.1477 72.2747 97.717 72.13 98.333 72.13ZM98.333 77.534C98.725 77.534 99.0844 77.4453 99.411 77.268C99.7377 77.0813 99.9944 76.8293 100.181 76.512C100.377 76.1853 100.475 75.8213 100.475 75.42C100.475 75.0187 100.377 74.6593 100.181 74.342C99.9944 74.0153 99.7377 73.7633 99.411 73.586C99.0844 73.4087 98.725 73.32 98.333 73.32C97.941 73.32 97.5817 73.4087 97.255 73.586C96.9284 73.7633 96.667 74.0153 96.471 74.342C96.2844 74.6593 96.191 75.0187 96.191 75.42C96.191 75.8213 96.2844 76.1853 96.471 76.512C96.667 76.8293 96.9284 77.0813 97.255 77.268C97.5817 77.4453 97.941 77.534 98.333 77.534ZM104.496 77.072H103.166V75.406H104.496V77.072ZM104.496 82H103.166V80.348H104.496V82ZM109.274 82.112C108.612 82.112 108.014 81.9953 107.482 81.762C106.95 81.5193 106.53 81.1647 106.222 80.698C105.914 80.2313 105.76 79.6713 105.76 79.018L107.006 78.948C107.006 79.564 107.216 80.0447 107.636 80.39C108.066 80.7353 108.626 80.908 109.316 80.908C109.96 80.908 110.488 80.7493 110.898 80.432C111.309 80.1053 111.514 79.648 111.514 79.06C111.514 78.3787 111.258 77.9307 110.744 77.716C110.24 77.5013 109.596 77.394 108.812 77.394V76.358C109.484 76.3673 110.016 76.246 110.408 75.994C110.8 75.7327 110.996 75.3407 110.996 74.818C110.996 74.3513 110.833 73.9873 110.506 73.726C110.18 73.4647 109.76 73.334 109.246 73.334C108.705 73.334 108.276 73.4833 107.958 73.782C107.641 74.0807 107.478 74.482 107.468 74.986L106.236 74.902C106.236 74.342 106.372 73.852 106.642 73.432C106.913 73.012 107.277 72.69 107.734 72.466C108.201 72.242 108.719 72.13 109.288 72.13C109.839 72.13 110.338 72.2373 110.786 72.452C111.244 72.6573 111.603 72.956 111.864 73.348C112.126 73.7307 112.256 74.1787 112.256 74.692C112.256 75.2427 112.098 75.686 111.78 76.022C111.472 76.358 111.076 76.5913 110.59 76.722C111.244 76.89 111.766 77.17 112.158 77.562C112.56 77.954 112.76 78.472 112.76 79.116C112.76 79.7413 112.602 80.2827 112.284 80.74C111.976 81.188 111.556 81.5287 111.024 81.762C110.502 81.9953 109.918 82.112 109.274 82.112ZM117.215 82.112C115.069 82.112 113.995 80.4367 113.995 77.086C113.995 73.7727 115.055 72.116 117.173 72.116C118.387 72.116 119.227 72.592 119.693 73.544C120.16 74.496 120.393 75.6813 120.393 77.1C120.393 78.5373 120.16 79.732 119.693 80.684C119.227 81.636 118.401 82.112 117.215 82.112ZM117.215 80.908C118.475 80.908 119.105 79.6527 119.105 77.142C119.105 75.938 118.956 75 118.657 74.328C118.359 73.656 117.864 73.32 117.173 73.32C116.464 73.32 115.969 73.6653 115.689 74.356C115.419 75.0373 115.283 75.9613 115.283 77.128C115.283 78.276 115.423 79.1953 115.703 79.886C115.993 80.5673 116.497 80.908 117.215 80.908Z" fill="#101825"/>
<rect x="144" y="62" width="64" height="30" rx="7" fill="#EDF0F4"/>
<path d="M162.602 72.242H163.862V82H162.602V74.846H160.068V73.796H161.734C162.033 73.796 162.252 73.7353 162.392 73.614C162.532 73.4833 162.602 73.2687 162.602 72.97V72.242ZM170.361 82.112C168.214 82.112 167.141 80.4367 167.141 77.086C167.141 73.7727 168.2 72.116 170.319 72.116C171.532 72.116 172.372 72.592 172.839 73.544C173.306 74.496 173.539 75.6813 173.539 77.1C173.539 78.5373 173.306 79.732 172.839 80.684C172.372 81.636 171.546 82.112 170.361 82.112ZM170.361 80.908C171.621 80.908 172.251 79.6527 172.251 77.142C172.251 75.938 172.102 75 171.803 74.328C171.504 73.656 171.01 73.32 170.319 73.32C169.61 73.32 169.115 73.6653 168.835 74.356C168.564 75.0373 168.429 75.9613 168.429 77.128C168.429 78.276 168.569 79.1953 168.849 79.886C169.138 80.5673 169.642 80.908 170.361 80.908ZM176.496 77.072H175.166V75.406H176.496V77.072ZM176.496 82H175.166V80.348H176.496V82ZM181.358 82.112C179.212 82.112 178.138 80.4367 178.138 77.086C178.138 73.7727 179.198 72.116 181.316 72.116C182.53 72.116 183.37 72.592 183.836 73.544C184.303 74.496 184.536 75.6813 184.536 77.1C184.536 78.5373 184.303 79.732 183.836 80.684C183.37 81.636 182.544 82.112 181.358 82.112ZM181.358 80.908C182.618 80.908 183.248 79.6527 183.248 77.142C183.248 75.938 183.099 75 182.8 74.328C182.502 73.656 182.007 73.32 181.316 73.32C180.607 73.32 180.112 73.6653 179.832 74.356C179.562 75.0373 179.426 75.9613 179.426 77.128C179.426 78.276 179.566 79.1953 179.846 79.886C180.136 80.5673 180.64 80.908 181.358 80.908ZM189.215 82.112C187.069 82.112 185.995 80.4367 185.995 77.086C185.995 73.7727 187.055 72.116 189.173 72.116C190.387 72.116 191.227 72.592 191.693 73.544C192.16 74.496 192.393 75.6813 192.393 77.1C192.393 78.5373 192.16 79.732 191.693 80.684C191.227 81.636 190.401 82.112 189.215 82.112ZM189.215 80.908C190.475 80.908 191.105 79.6527 191.105 77.142C191.105 75.938 190.956 75 190.657 74.328C190.359 73.656 189.864 73.32 189.173 73.32C188.464 73.32 187.969 73.6653 187.689 74.356C187.419 75.0373 187.283 75.9613 187.283 77.128C187.283 78.276 187.423 79.1953 187.703 79.886C187.993 80.5673 188.497 80.908 189.215 80.908Z" fill="#101825"/>
<rect x="216" y="62" width="64" height="30" rx="7" fill="#EDF0F4"/>
<path d="M234.602 72.242H235.862V82H234.602V74.846H232.068V73.796H233.734C234.033 73.796 234.252 73.7353 234.392 73.614C234.532 73.4833 234.602 73.2687 234.602 72.97V72.242ZM242.361 82.112C240.214 82.112 239.141 80.4367 239.141 77.086C239.141 73.7727 240.2 72.116 242.319 72.116C243.532 72.116 244.372 72.592 244.839 73.544C245.306 74.496 245.539 75.6813 245.539 77.1C245.539 78.5373 245.306 79.732 244.839 80.684C244.372 81.636 243.546 82.112 242.361 82.112ZM242.361 80.908C243.621 80.908 244.251 79.6527 244.251 77.142C244.251 75.938 244.102 75 243.803 74.328C243.504 73.656 243.01 73.32 242.319 73.32C241.61 73.32 241.115 73.6653 240.835 74.356C240.564 75.0373 240.429 75.9613 240.429 77.128C240.429 78.276 240.569 79.1953 240.849 79.886C241.138 80.5673 241.642 80.908 242.361 80.908ZM248.496 77.072H247.166V75.406H248.496V77.072ZM248.496 82H247.166V80.348H248.496V82ZM253.274 82.112C252.612 82.112 252.014 81.9953 251.482 81.762C250.95 81.5193 250.53 81.1647 250.222 80.698C249.914 80.2313 249.76 79.6713 249.76 79.018L251.006 78.948C251.006 79.564 251.216 80.0447 251.636 80.39C252.066 80.7353 252.626 80.908 253.316 80.908C253.96 80.908 254.488 80.7493 254.898 80.432C255.309 80.1053 255.514 79.648 255.514 79.06C255.514 78.3787 255.258 77.9307 254.744 77.716C254.24 77.5013 253.596 77.394 252.812 77.394V76.358C253.484 76.3673 254.016 76.246 254.408 75.994C254.8 75.7327 254.996 75.3407 254.996 74.818C254.996 74.3513 254.833 73.9873 254.506 73.726C254.18 73.4647 253.76 73.334 253.246 73.334C252.705 73.334 252.276 73.4833 251.958 73.782C251.641 74.0807 251.478 74.482 251.468 74.986L250.236 74.902C250.236 74.342 250.372 73.852 250.642 73.432C250.913 73.012 251.277 72.69 251.734 72.466C252.201 72.242 252.719 72.13 253.288 72.13C253.839 72.13 254.338 72.2373 254.786 72.452C255.244 72.6573 255.603 72.956 255.864 73.348C256.126 73.7307 256.256 74.1787 256.256 74.692C256.256 75.2427 256.098 75.686 255.78 76.022C255.472 76.358 255.076 76.5913 254.59 76.722C255.244 76.89 255.766 77.17 256.158 77.562C256.56 77.954 256.76 78.472 256.76 79.116C256.76 79.7413 256.602 80.2827 256.284 80.74C255.976 81.188 255.556 81.5287 255.024 81.762C254.502 81.9953 253.918 82.112 253.274 82.112ZM261.215 82.112C259.069 82.112 257.995 80.4367 257.995 77.086C257.995 73.7727 259.055 72.116 261.173 72.116C262.387 72.116 263.227 72.592 263.693 73.544C264.16 74.496 264.393 75.6813 264.393 77.1C264.393 78.5373 264.16 79.732 263.693 80.684C263.227 81.636 262.401 82.112 261.215 82.112ZM261.215 80.908C262.475 80.908 263.105 79.6527 263.105 77.142C263.105 75.938 262.956 75 262.657 74.328C262.359 73.656 261.864 73.32 261.173 73.32C260.464 73.32 259.969 73.6653 259.689 74.356C259.419 75.0373 259.283 75.9613 259.283 77.128C259.283 78.276 259.423 79.1953 259.703 79.886C259.993 80.5673 260.497 80.908 261.215 80.908Z" fill="#101825"/>
<rect x="288" y="62" width="64" height="30" rx="7" fill="#EDF0F4"/>
<path d="M306.602 72.242H307.862V82H306.602V74.846H304.068V73.796H305.734C306.033 73.796 306.252 73.7353 306.392 73.614C306.532 73.4833 306.602 73.2687 306.602 72.97V72.242ZM317.679 80.838V82H311.141V80.908C311.328 80.7773 311.468 80.6747 311.561 80.6C312.392 80.0213 313.115 79.4753 313.731 78.962C314.347 78.4487 314.888 77.8607 315.355 77.198C315.822 76.5353 316.055 75.8587 316.055 75.168C316.055 74.6173 315.901 74.1787 315.593 73.852C315.294 73.5253 314.86 73.362 314.291 73.362C313.656 73.362 313.176 73.5767 312.849 74.006C312.532 74.426 312.364 74.972 312.345 75.644L311.127 75.546C311.127 74.93 311.248 74.3653 311.491 73.852C311.743 73.3293 312.112 72.914 312.597 72.606C313.082 72.298 313.656 72.144 314.319 72.144C314.907 72.144 315.425 72.27 315.873 72.522C316.321 72.7647 316.666 73.1147 316.909 73.572C317.161 74.02 317.287 74.5427 317.287 75.14C317.287 75.868 317.1 76.5587 316.727 77.212C316.363 77.8653 315.882 78.472 315.285 79.032C314.688 79.592 313.95 80.194 313.073 80.838H317.679ZM320.496 77.072H319.166V75.406H320.496V77.072ZM320.496 82H319.166V80.348H320.496V82ZM325.358 82.112C323.212 82.112 322.138 80.4367 322.138 77.086C322.138 73.7727 323.198 72.116 325.316 72.116C326.53 72.116 327.37 72.592 327.836 73.544C328.303 74.496 328.536 75.6813 328.536 77.1C328.536 78.5373 328.303 79.732 327.836 80.684C327.37 81.636 326.544 82.112 325.358 82.112ZM325.358 80.908C326.618 80.908 327.248 79.6527 327.248 77.142C327.248 75.938 327.099 75 326.8 74.328C326.502 73.656 326.007 73.32 325.316 73.32C324.607 73.32 324.112 73.6653 323.832 74.356C323.562 75.0373 323.426 75.9613 323.426 77.128C323.426 78.276 323.566 79.1953 323.846 79.886C324.136 80.5673 324.64 80.908 325.358 80.908ZM333.215 82.112C331.069 82.112 329.995 80.4367 329.995 77.086C329.995 73.7727 331.055 72.116 333.173 72.116C334.387 72.116 335.227 72.592 335.693 73.544C336.16 74.496 336.393 75.6813 336.393 77.1C336.393 78.5373 336.16 79.732 335.693 80.684C335.227 81.636 334.401 82.112 333.215 82.112ZM333.215 80.908C334.475 80.908 335.105 79.6527 335.105 77.142C335.105 75.938 334.956 75 334.657 74.328C334.359 73.656 333.864 73.32 333.173 73.32C332.464 73.32 331.969 73.6653 331.689 74.356C331.419 75.0373 331.283 75.9613 331.283 77.128C331.283 78.276 331.423 79.1953 331.703 79.886C331.993 80.5673 332.497 80.908 333.215 80.908Z" fill="#101825"/>
<rect y="100" width="64" height="30" rx="7" fill="#EDF0F4"/>
<path d="M18.602 110.242H19.862V120H18.602V112.846H16.068V111.796H17.734C18.0327 111.796 18.252 111.735 18.392 111.614C18.532 111.483 18.602 111.269 18.602 110.97V110.242ZM26.459 110.242H27.719V120H26.459V112.846H23.925V111.796H25.591C25.8897 111.796 26.109 111.735 26.249 111.614C26.389 111.483 26.459 111.269 26.459 110.97V110.242ZM32.4961 115.072H31.1661V113.406H32.4961V115.072ZM32.4961 120H31.1661V118.348H32.4961V120ZM37.3583 120.112C35.2116 120.112 34.1383 118.437 34.1383 115.086C34.1383 111.773 35.1976 110.116 37.3163 110.116C38.5296 110.116 39.3696 110.592 39.8363 111.544C40.303 112.496 40.5363 113.681 40.5363 115.1C40.5363 116.537 40.303 117.732 39.8363 118.684C39.3696 119.636 38.5436 120.112 37.3583 120.112ZM37.3583 118.908C38.6183 118.908 39.2483 117.653 39.2483 115.142C39.2483 113.938 39.099 113 38.8003 112.328C38.5016 111.656 38.007 111.32 37.3163 111.32C36.607 111.32 36.1123 111.665 35.8323 112.356C35.5616 113.037 35.4263 113.961 35.4263 115.128C35.4263 116.276 35.5663 117.195 35.8463 117.886C36.1356 118.567 36.6396 118.908 37.3583 118.908ZM45.2153 120.112C43.0687 120.112 41.9953 118.437 41.9953 115.086C41.9953 111.773 43.0547 110.116 45.1733 110.116C46.3867 110.116 47.2267 110.592 47.6933 111.544C48.16 112.496 48.3933 113.681 48.3933 115.1C48.3933 116.537 48.16 117.732 47.6933 118.684C47.2267 119.636 46.4007 120.112 45.2153 120.112ZM45.2153 118.908C46.4753 118.908 47.1053 117.653 47.1053 115.142C47.1053 113.938 46.956 113 46.6573 112.328C46.3587 111.656 45.864 111.32 45.1733 111.32C44.464 111.32 43.9693 111.665 43.6893 112.356C43.4187 113.037 43.2833 113.961 43.2833 115.128C43.2833 116.276 43.4233 117.195 43.7033 117.886C43.9927 118.567 44.4967 118.908 45.2153 118.908Z" fill="#101825"/>
<rect x="72" y="100" width="64" height="30" rx="7" fill="#EDF0F4"/>
<path d="M90.602 110.242H91.862V120H90.602V112.846H88.068V111.796H89.734C90.0327 111.796 90.252 111.735 90.392 111.614C90.532 111.483 90.602 111.269 90.602 110.97V110.242ZM98.459 110.242H99.719V120H98.459V112.846H95.925V111.796H97.591C97.8897 111.796 98.109 111.735 98.249 111.614C98.389 111.483 98.459 111.269 98.459 110.97V110.242ZM104.496 115.072H103.166V113.406H104.496V115.072ZM104.496 120H103.166V118.348H104.496V120ZM109.274 120.112C108.612 120.112 108.014 119.995 107.482 119.762C106.95 119.519 106.53 119.165 106.222 118.698C105.914 118.231 105.76 117.671 105.76 117.018L107.006 116.948C107.006 117.564 107.216 118.045 107.636 118.39C108.066 118.735 108.626 118.908 109.316 118.908C109.96 118.908 110.488 118.749 110.898 118.432C111.309 118.105 111.514 117.648 111.514 117.06C111.514 116.379 111.258 115.931 110.744 115.716C110.24 115.501 109.596 115.394 108.812 115.394V114.358C109.484 114.367 110.016 114.246 110.408 113.994C110.8 113.733 110.996 113.341 110.996 112.818C110.996 112.351 110.833 111.987 110.506 111.726C110.18 111.465 109.76 111.334 109.246 111.334C108.705 111.334 108.276 111.483 107.958 111.782C107.641 112.081 107.478 112.482 107.468 112.986L106.236 112.902C106.236 112.342 106.372 111.852 106.642 111.432C106.913 111.012 107.277 110.69 107.734 110.466C108.201 110.242 108.719 110.13 109.288 110.13C109.839 110.13 110.338 110.237 110.786 110.452C111.244 110.657 111.603 110.956 111.864 111.348C112.126 111.731 112.256 112.179 112.256 112.692C112.256 113.243 112.098 113.686 111.78 114.022C111.472 114.358 111.076 114.591 110.59 114.722C111.244 114.89 111.766 115.17 112.158 115.562C112.56 115.954 112.76 116.472 112.76 117.116C112.76 117.741 112.602 118.283 112.284 118.74C111.976 119.188 111.556 119.529 111.024 119.762C110.502 119.995 109.918 120.112 109.274 120.112ZM117.215 120.112C115.069 120.112 113.995 118.437 113.995 115.086C113.995 111.773 115.055 110.116 117.173 110.116C118.387 110.116 119.227 110.592 119.693 111.544C120.16 112.496 120.393 113.681 120.393 115.1C120.393 116.537 120.16 117.732 119.693 118.684C119.227 119.636 118.401 120.112 117.215 120.112ZM117.215 118.908C118.475 118.908 119.105 117.653 119.105 115.142C119.105 113.938 118.956 113 118.657 112.328C118.359 111.656 117.864 111.32 117.173 111.32C116.464 111.32 115.969 111.665 115.689 112.356C115.419 113.037 115.283 113.961 115.283 115.128C115.283 116.276 115.423 117.195 115.703 117.886C115.993 118.567 116.497 118.908 117.215 118.908Z" fill="#101825"/>
<rect x="144" y="100" width="64" height="30" rx="7" fill="#4CB147"/>
<path d="M162.602 110.242H163.862V120H162.602V112.846H160.068V111.796H161.734C162.033 111.796 162.252 111.735 162.392 111.614C162.532 111.483 162.602 111.269 162.602 110.97V110.242ZM173.679 118.838V120H167.141V118.908C167.328 118.777 167.468 118.675 167.561 118.6C168.392 118.021 169.115 117.475 169.731 116.962C170.347 116.449 170.888 115.861 171.355 115.198C171.822 114.535 172.055 113.859 172.055 113.168C172.055 112.617 171.901 112.179 171.593 111.852C171.294 111.525 170.86 111.362 170.291 111.362C169.656 111.362 169.176 111.577 168.849 112.006C168.532 112.426 168.364 112.972 168.345 113.644L167.127 113.546C167.127 112.93 167.248 112.365 167.491 111.852C167.743 111.329 168.112 110.914 168.597 110.606C169.082 110.298 169.656 110.144 170.319 110.144C170.907 110.144 171.425 110.27 171.873 110.522C172.321 110.765 172.666 111.115 172.909 111.572C173.161 112.02 173.287 112.543 173.287 113.14C173.287 113.868 173.1 114.559 172.727 115.212C172.363 115.865 171.882 116.472 171.285 117.032C170.688 117.592 169.95 118.194 169.073 118.838H173.679ZM176.496 115.072H175.166V113.406H176.496V115.072ZM176.496 120H175.166V118.348H176.496V120ZM181.358 120.112C179.212 120.112 178.138 118.437 178.138 115.086C178.138 111.773 179.198 110.116 181.316 110.116C182.53 110.116 183.37 110.592 183.836 111.544C184.303 112.496 184.536 113.681 184.536 115.1C184.536 116.537 184.303 117.732 183.836 118.684C183.37 119.636 182.544 120.112 181.358 120.112ZM181.358 118.908C182.618 118.908 183.248 117.653 183.248 115.142C183.248 113.938 183.099 113 182.8 112.328C182.502 111.656 182.007 111.32 181.316 111.32C180.607 111.32 180.112 111.665 179.832 112.356C179.562 113.037 179.426 113.961 179.426 115.128C179.426 116.276 179.566 117.195 179.846 117.886C180.136 118.567 180.64 118.908 181.358 118.908ZM189.215 120.112C187.069 120.112 185.995 118.437 185.995 115.086C185.995 111.773 187.055 110.116 189.173 110.116C190.387 110.116 191.227 110.592 191.693 111.544C192.16 112.496 192.393 113.681 192.393 115.1C192.393 116.537 192.16 117.732 191.693 118.684C191.227 119.636 190.401 120.112 189.215 120.112ZM189.215 118.908C190.475 118.908 191.105 117.653 191.105 115.142C191.105 113.938 190.956 113 190.657 112.328C190.359 111.656 189.864 111.32 189.173 111.32C188.464 111.32 187.969 111.665 187.689 112.356C187.419 113.037 187.283 113.961 187.283 115.128C187.283 116.276 187.423 117.195 187.703 117.886C187.993 118.567 188.497 118.908 189.215 118.908Z" fill="white"/>
<rect x="216" y="100" width="64" height="30" rx="7" fill="#EDF0F4"/>
<path d="M234.602 110.242H235.862V120H234.602V112.846H232.068V111.796H233.734C234.033 111.796 234.252 111.735 234.392 111.614C234.532 111.483 234.602 111.269 234.602 110.97V110.242ZM242.277 120.112C241.614 120.112 241.017 119.995 240.485 119.762C239.953 119.519 239.533 119.165 239.225 118.698C238.917 118.231 238.763 117.671 238.763 117.018L240.009 116.948C240.009 117.564 240.219 118.045 240.639 118.39C241.068 118.735 241.628 118.908 242.319 118.908C242.963 118.908 243.49 118.749 243.901 118.432C244.312 118.105 244.517 117.648 244.517 117.06C244.517 116.379 244.26 115.931 243.747 115.716C243.243 115.501 242.599 115.394 241.815 115.394V114.358C242.487 114.367 243.019 114.246 243.411 113.994C243.803 113.733 243.999 113.341 243.999 112.818C243.999 112.351 243.836 111.987 243.509 111.726C243.182 111.465 242.762 111.334 242.249 111.334C241.708 111.334 241.278 111.483 240.961 111.782C240.644 112.081 240.48 112.482 240.471 112.986L239.239 112.902C239.239 112.342 239.374 111.852 239.645 111.432C239.916 111.012 240.28 110.69 240.737 110.466C241.204 110.242 241.722 110.13 242.291 110.13C242.842 110.13 243.341 110.237 243.789 110.452C244.246 110.657 244.606 110.956 244.867 111.348C245.128 111.731 245.259 112.179 245.259 112.692C245.259 113.243 245.1 113.686 244.783 114.022C244.475 114.358 244.078 114.591 243.593 114.722C244.246 114.89 244.769 115.17 245.161 115.562C245.562 115.954 245.763 116.472 245.763 117.116C245.763 117.741 245.604 118.283 245.287 118.74C244.979 119.188 244.559 119.529 244.027 119.762C243.504 119.995 242.921 120.112 242.277 120.112ZM248.496 115.072H247.166V113.406H248.496V115.072ZM248.496 120H247.166V118.348H248.496V120ZM253.358 120.112C251.212 120.112 250.138 118.437 250.138 115.086C250.138 111.773 251.198 110.116 253.316 110.116C254.53 110.116 255.37 110.592 255.836 111.544C256.303 112.496 256.536 113.681 256.536 115.1C256.536 116.537 256.303 117.732 255.836 118.684C255.37 119.636 254.544 120.112 253.358 120.112ZM253.358 118.908C254.618 118.908 255.248 117.653 255.248 115.142C255.248 113.938 255.099 113 254.8 112.328C254.502 111.656 254.007 111.32 253.316 111.32C252.607 111.32 252.112 111.665 251.832 112.356C251.562 113.037 251.426 113.961 251.426 115.128C251.426 116.276 251.566 117.195 251.846 117.886C252.136 118.567 252.64 118.908 253.358 118.908ZM261.215 120.112C259.069 120.112 257.995 118.437 257.995 115.086C257.995 111.773 259.055 110.116 261.173 110.116C262.387 110.116 263.227 110.592 263.693 111.544C264.16 112.496 264.393 113.681 264.393 115.1C264.393 116.537 264.16 117.732 263.693 118.684C263.227 119.636 262.401 120.112 261.215 120.112ZM261.215 118.908C262.475 118.908 263.105 117.653 263.105 115.142C263.105 113.938 262.956 113 262.657 112.328C262.359 111.656 261.864 111.32 261.173 111.32C260.464 111.32 259.969 111.665 259.689 112.356C259.419 113.037 259.283 113.961 259.283 115.128C259.283 116.276 259.423 117.195 259.703 117.886C259.993 118.567 260.497 118.908 261.215 118.908Z" fill="#101825"/>
<rect x="288" y="100" width="64" height="30" rx="7" fill="#EDF0F4"/>
<path d="M306.602 110.242H307.862V120H306.602V112.846H304.068V111.796H305.734C306.033 111.796 306.252 111.735 306.392 111.614C306.532 111.483 306.602 111.269 306.602 110.97V110.242ZM317.679 118.838V120H311.141V118.908C311.328 118.777 311.468 118.675 311.561 118.6C312.392 118.021 313.115 117.475 313.731 116.962C314.347 116.449 314.888 115.861 315.355 115.198C315.822 114.535 316.055 113.859 316.055 113.168C316.055 112.617 315.901 112.179 315.593 111.852C315.294 111.525 314.86 111.362 314.291 111.362C313.656 111.362 313.176 111.577 312.849 112.006C312.532 112.426 312.364 112.972 312.345 113.644L311.127 113.546C311.127 112.93 311.248 112.365 311.491 111.852C311.743 111.329 312.112 110.914 312.597 110.606C313.082 110.298 313.656 110.144 314.319 110.144C314.907 110.144 315.425 110.27 315.873 110.522C316.321 110.765 316.666 111.115 316.909 111.572C317.161 112.02 317.287 112.543 317.287 113.14C317.287 113.868 317.1 114.559 316.727 115.212C316.363 115.865 315.882 116.472 315.285 117.032C314.688 117.592 313.95 118.194 313.073 118.838H317.679ZM320.496 115.072H319.166V113.406H320.496V115.072ZM320.496 120H319.166V118.348H320.496V120ZM325.358 120.112C323.212 120.112 322.138 118.437 322.138 115.086C322.138 111.773 323.198 110.116 325.316 110.116C326.53 110.116 327.37 110.592 327.836 111.544C328.303 112.496 328.536 113.681 328.536 115.1C328.536 116.537 328.303 117.732 327.836 118.684C327.37 119.636 326.544 120.112 325.358 120.112ZM325.358 118.908C326.618 118.908 327.248 117.653 327.248 115.142C327.248 113.938 327.099 113 326.8 112.328C326.502 111.656 326.007 111.32 325.316 111.32C324.607 111.32 324.112 111.665 323.832 112.356C323.562 113.037 323.426 113.961 323.426 115.128C323.426 116.276 323.566 117.195 323.846 117.886C324.136 118.567 324.64 118.908 325.358 118.908ZM333.215 120.112C331.069 120.112 329.995 118.437 329.995 115.086C329.995 111.773 331.055 110.116 333.173 110.116C334.387 110.116 335.227 110.592 335.693 111.544C336.16 112.496 336.393 113.681 336.393 115.1C336.393 116.537 336.16 117.732 335.693 118.684C335.227 119.636 334.401 120.112 333.215 120.112ZM333.215 118.908C334.475 118.908 335.105 117.653 335.105 115.142C335.105 113.938 334.956 113 334.657 112.328C334.359 111.656 333.864 111.32 333.173 111.32C332.464 111.32 331.969 111.665 331.689 112.356C331.419 113.037 331.283 113.961 331.283 115.128C331.283 116.276 331.423 117.195 331.703 117.886C331.993 118.567 332.497 118.908 333.215 118.908Z" fill="#101825"/>
<rect y="138" width="64" height="30" rx="7" fill="#EDF0F4"/>
<path d="M18.602 148.242H19.862V158H18.602V150.846H16.068V149.796H17.734C18.0327 149.796 18.252 149.735 18.392 149.614C18.532 149.483 18.602 149.269 18.602 148.97V148.242ZM26.277 158.112C25.6144 158.112 25.017 157.995 24.485 157.762C23.953 157.519 23.533 157.165 23.225 156.698C22.917 156.231 22.763 155.671 22.763 155.018L24.009 154.948C24.009 155.564 24.219 156.045 24.639 156.39C25.0684 156.735 25.6284 156.908 26.319 156.908C26.963 156.908 27.4904 156.749 27.901 156.432C28.3117 156.105 28.517 155.648 28.517 155.06C28.517 154.379 28.2604 153.931 27.747 153.716C27.243 153.501 26.599 153.394 25.815 153.394V152.358C26.487 152.367 27.019 152.246 27.411 151.994C27.803 151.733 27.999 151.341 27.999 150.818C27.999 150.351 27.8357 149.987 27.509 149.726C27.1824 149.465 26.7624 149.334 26.249 149.334C25.7077 149.334 25.2784 149.483 24.961 149.782C24.6437 150.081 24.4804 150.482 24.471 150.986L23.239 150.902C23.239 150.342 23.3744 149.852 23.645 149.432C23.9157 149.012 24.2797 148.69 24.737 148.466C25.2037 148.242 25.7217 148.13 26.291 148.13C26.8417 148.13 27.341 148.237 27.789 148.452C28.2464 148.657 28.6057 148.956 28.867 149.348C29.1284 149.731 29.259 150.179 29.259 150.692C29.259 151.243 29.1004 151.686 28.783 152.022C28.475 152.358 28.0784 152.591 27.593 152.722C28.2464 152.89 28.769 153.17 29.161 153.562C29.5624 153.954 29.763 154.472 29.763 155.116C29.763 155.741 29.6044 156.283 29.287 156.74C28.979 157.188 28.559 157.529 28.027 157.762C27.5044 157.995 26.921 158.112 26.277 158.112ZM32.4961 153.072H31.1661V151.406H32.4961V153.072ZM32.4961 158H31.1661V156.348H32.4961V158ZM37.3583 158.112C35.2116 158.112 34.1383 156.437 34.1383 153.086C34.1383 149.773 35.1976 148.116 37.3163 148.116C38.5296 148.116 39.3696 148.592 39.8363 149.544C40.303 150.496 40.5363 151.681 40.5363 153.1C40.5363 154.537 40.303 155.732 39.8363 156.684C39.3696 157.636 38.5436 158.112 37.3583 158.112ZM37.3583 156.908C38.6183 156.908 39.2483 155.653 39.2483 153.142C39.2483 151.938 39.099 151 38.8003 150.328C38.5016 149.656 38.007 149.32 37.3163 149.32C36.607 149.32 36.1123 149.665 35.8323 150.356C35.5616 151.037 35.4263 151.961 35.4263 153.128C35.4263 154.276 35.5663 155.195 35.8463 155.886C36.1356 156.567 36.6396 156.908 37.3583 156.908ZM45.2153 158.112C43.0687 158.112 41.9953 156.437 41.9953 153.086C41.9953 149.773 43.0547 148.116 45.1733 148.116C46.3867 148.116 47.2267 148.592 47.6933 149.544C48.16 150.496 48.3933 151.681 48.3933 153.1C48.3933 154.537 48.16 155.732 47.6933 156.684C47.2267 157.636 46.4007 158.112 45.2153 158.112ZM45.2153 156.908C46.4753 156.908 47.1053 155.653 47.1053 153.142C47.1053 151.938 46.956 151 46.6573 150.328C46.3587 149.656 45.864 149.32 45.1733 149.32C44.464 149.32 43.9693 149.665 43.6893 150.356C43.4187 151.037 43.2833 151.961 43.2833 153.128C43.2833 154.276 43.4233 155.195 43.7033 155.886C43.9927 156.567 44.4967 156.908 45.2153 156.908Z" fill="#101825"/>
<rect x="72" y="138" width="64" height="30" rx="7" fill="#EDF0F4"/>
<path d="M90.602 148.242H91.862V158H90.602V150.846H88.068V149.796H89.734C90.0327 149.796 90.252 149.735 90.392 149.614C90.532 149.483 90.602 149.269 90.602 148.97V148.242ZM98.277 158.112C97.6144 158.112 97.017 157.995 96.485 157.762C95.953 157.519 95.533 157.165 95.225 156.698C94.917 156.231 94.763 155.671 94.763 155.018L96.009 154.948C96.009 155.564 96.219 156.045 96.639 156.39C97.0684 156.735 97.6284 156.908 98.319 156.908C98.963 156.908 99.4904 156.749 99.901 156.432C100.312 156.105 100.517 155.648 100.517 155.06C100.517 154.379 100.26 153.931 99.747 153.716C99.243 153.501 98.599 153.394 97.815 153.394V152.358C98.487 152.367 99.019 152.246 99.411 151.994C99.803 151.733 99.999 151.341 99.999 150.818C99.999 150.351 99.8357 149.987 99.509 149.726C99.1824 149.465 98.7624 149.334 98.249 149.334C97.7077 149.334 97.2784 149.483 96.961 149.782C96.6437 150.081 96.4804 150.482 96.471 150.986L95.239 150.902C95.239 150.342 95.3744 149.852 95.645 149.432C95.9157 149.012 96.2797 148.69 96.737 148.466C97.2037 148.242 97.7217 148.13 98.291 148.13C98.8417 148.13 99.341 148.237 99.789 148.452C100.246 148.657 100.606 148.956 100.867 149.348C101.128 149.731 101.259 150.179 101.259 150.692C101.259 151.243 101.1 151.686 100.783 152.022C100.475 152.358 100.078 152.591 99.593 152.722C100.246 152.89 100.769 153.17 101.161 153.562C101.562 153.954 101.763 154.472 101.763 155.116C101.763 155.741 101.604 156.283 101.287 156.74C100.979 157.188 100.559 157.529 100.027 157.762C99.5044 157.995 98.921 158.112 98.277 158.112ZM104.496 153.072H103.166V151.406H104.496V153.072ZM104.496 158H103.166V156.348H104.496V158ZM109.274 158.112C108.612 158.112 108.014 157.995 107.482 157.762C106.95 157.519 106.53 157.165 106.222 156.698C105.914 156.231 105.76 155.671 105.76 155.018L107.006 154.948C107.006 155.564 107.216 156.045 107.636 156.39C108.066 156.735 108.626 156.908 109.316 156.908C109.96 156.908 110.488 156.749 110.898 156.432C111.309 156.105 111.514 155.648 111.514 155.06C111.514 154.379 111.258 153.931 110.744 153.716C110.24 153.501 109.596 153.394 108.812 153.394V152.358C109.484 152.367 110.016 152.246 110.408 151.994C110.8 151.733 110.996 151.341 110.996 150.818C110.996 150.351 110.833 149.987 110.506 149.726C110.18 149.465 109.76 149.334 109.246 149.334C108.705 149.334 108.276 149.483 107.958 149.782C107.641 150.081 107.478 150.482 107.468 150.986L106.236 150.902C106.236 150.342 106.372 149.852 106.642 149.432C106.913 149.012 107.277 148.69 107.734 148.466C108.201 148.242 108.719 148.13 109.288 148.13C109.839 148.13 110.338 148.237 110.786 148.452C111.244 148.657 111.603 148.956 111.864 149.348C112.126 149.731 112.256 150.179 112.256 150.692C112.256 151.243 112.098 151.686 111.78 152.022C111.472 152.358 111.076 152.591 110.59 152.722C111.244 152.89 111.766 153.17 112.158 153.562C112.56 153.954 112.76 154.472 112.76 155.116C112.76 155.741 112.602 156.283 112.284 156.74C111.976 157.188 111.556 157.529 111.024 157.762C110.502 157.995 109.918 158.112 109.274 158.112ZM117.215 158.112C115.069 158.112 113.995 156.437 113.995 153.086C113.995 149.773 115.055 148.116 117.173 148.116C118.387 148.116 119.227 148.592 119.693 149.544C120.16 150.496 120.393 151.681 120.393 153.1C120.393 154.537 120.16 155.732 119.693 156.684C119.227 157.636 118.401 158.112 117.215 158.112ZM117.215 156.908C118.475 156.908 119.105 155.653 119.105 153.142C119.105 151.938 118.956 151 118.657 150.328C118.359 149.656 117.864 149.32 117.173 149.32C116.464 149.32 115.969 149.665 115.689 150.356C115.419 151.037 115.283 151.961 115.283 153.128C115.283 154.276 115.423 155.195 115.703 155.886C115.993 156.567 116.497 156.908 117.215 156.908Z" fill="#101825"/>
<rect x="144" y="138" width="64" height="30" rx="7" fill="#EDF0F4"/>
<path d="M162.602 148.242H163.862V158H162.602V150.846H160.068V149.796H161.734C162.033 149.796 162.252 149.735 162.392 149.614C162.532 149.483 162.602 149.269 162.602 148.97V148.242ZM172.545 148.242V154.514H174.113V155.676H172.545V158H171.285V155.676H166.693V154.528L171.243 148.242H172.545ZM171.285 149.894L168.009 154.514H171.285V149.894ZM176.496 153.072H175.166V151.406H176.496V153.072ZM176.496 158H175.166V156.348H176.496V158ZM181.358 158.112C179.212 158.112 178.138 156.437 178.138 153.086C178.138 149.773 179.198 148.116 181.316 148.116C182.53 148.116 183.37 148.592 183.836 149.544C184.303 150.496 184.536 151.681 184.536 153.1C184.536 154.537 184.303 155.732 183.836 156.684C183.37 157.636 182.544 158.112 181.358 158.112ZM181.358 156.908C182.618 156.908 183.248 155.653 183.248 153.142C183.248 151.938 183.099 151 182.8 150.328C182.502 149.656 182.007 149.32 181.316 149.32C180.607 149.32 180.112 149.665 179.832 150.356C179.562 151.037 179.426 151.961 179.426 153.128C179.426 154.276 179.566 155.195 179.846 155.886C180.136 156.567 180.64 156.908 181.358 156.908ZM189.215 158.112C187.069 158.112 185.995 156.437 185.995 153.086C185.995 149.773 187.055 148.116 189.173 148.116C190.387 148.116 191.227 148.592 191.693 149.544C192.16 150.496 192.393 151.681 192.393 153.1C192.393 154.537 192.16 155.732 191.693 156.684C191.227 157.636 190.401 158.112 189.215 158.112ZM189.215 156.908C190.475 156.908 191.105 155.653 191.105 153.142C191.105 151.938 190.956 151 190.657 150.328C190.359 149.656 189.864 149.32 189.173 149.32C188.464 149.32 187.969 149.665 187.689 150.356C187.419 151.037 187.283 151.961 187.283 153.128C187.283 154.276 187.423 155.195 187.703 155.886C187.993 156.567 188.497 156.908 189.215 156.908Z" fill="#101825"/>
<rect x="216" y="138" width="64" height="30" rx="7" fill="#EDF0F4"/>
<path d="M234.602 148.242H235.862V158H234.602V150.846H232.068V149.796H233.734C234.033 149.796 234.252 149.735 234.392 149.614C234.532 149.483 234.602 149.269 234.602 148.97V148.242ZM244.545 148.242V154.514H246.113V155.676H244.545V158H243.285V155.676H238.693V154.528L243.243 148.242H244.545ZM243.285 149.894L240.009 154.514H243.285V149.894ZM248.496 153.072H247.166V151.406H248.496V153.072ZM248.496 158H247.166V156.348H248.496V158ZM253.274 158.112C252.612 158.112 252.014 157.995 251.482 157.762C250.95 157.519 250.53 157.165 250.222 156.698C249.914 156.231 249.76 155.671 249.76 155.018L251.006 154.948C251.006 155.564 251.216 156.045 251.636 156.39C252.066 156.735 252.626 156.908 253.316 156.908C253.96 156.908 254.488 156.749 254.898 156.432C255.309 156.105 255.514 155.648 255.514 155.06C255.514 154.379 255.258 153.931 254.744 153.716C254.24 153.501 253.596 153.394 252.812 153.394V152.358C253.484 152.367 254.016 152.246 254.408 151.994C254.8 151.733 254.996 151.341 254.996 150.818C254.996 150.351 254.833 149.987 254.506 149.726C254.18 149.465 253.76 149.334 253.246 149.334C252.705 149.334 252.276 149.483 251.958 149.782C251.641 150.081 251.478 150.482 251.468 150.986L250.236 150.902C250.236 150.342 250.372 149.852 250.642 149.432C250.913 149.012 251.277 148.69 251.734 148.466C252.201 148.242 252.719 148.13 253.288 148.13C253.839 148.13 254.338 148.237 254.786 148.452C255.244 148.657 255.603 148.956 255.864 149.348C256.126 149.731 256.256 150.179 256.256 150.692C256.256 151.243 256.098 151.686 255.78 152.022C255.472 152.358 255.076 152.591 254.59 152.722C255.244 152.89 255.766 153.17 256.158 153.562C256.56 153.954 256.76 154.472 256.76 155.116C256.76 155.741 256.602 156.283 256.284 156.74C255.976 157.188 255.556 157.529 255.024 157.762C254.502 157.995 253.918 158.112 253.274 158.112ZM261.215 158.112C259.069 158.112 257.995 156.437 257.995 153.086C257.995 149.773 259.055 148.116 261.173 148.116C262.387 148.116 263.227 148.592 263.693 149.544C264.16 150.496 264.393 151.681 264.393 153.1C264.393 154.537 264.16 155.732 263.693 156.684C263.227 157.636 262.401 158.112 261.215 158.112ZM261.215 156.908C262.475 156.908 263.105 155.653 263.105 153.142C263.105 151.938 262.956 151 262.657 150.328C262.359 149.656 261.864 149.32 261.173 149.32C260.464 149.32 259.969 149.665 259.689 150.356C259.419 151.037 259.283 151.961 259.283 153.128C259.283 154.276 259.423 155.195 259.703 155.886C259.993 156.567 260.497 156.908 261.215 156.908Z" fill="#101825"/>
<rect x="288" y="138" width="64" height="30" rx="7" fill="#EDF0F4"/>
<path d="M306.602 148.242H307.862V158H306.602V150.846H304.068V149.796H305.734C306.033 149.796 306.252 149.735 306.392 149.614C306.532 149.483 306.602 149.269 306.602 148.97V148.242ZM314.501 151.392C315.117 151.392 315.668 151.541 316.153 151.84C316.648 152.129 317.03 152.526 317.301 153.03C317.581 153.525 317.721 154.066 317.721 154.654C317.721 155.27 317.572 155.844 317.273 156.376C316.974 156.899 316.559 157.319 316.027 157.636C315.504 157.953 314.916 158.112 314.263 158.112C313.694 158.112 313.166 157.991 312.681 157.748C312.196 157.496 311.794 157.155 311.477 156.726C311.16 156.297 310.954 155.807 310.861 155.256L312.093 155.046C312.177 155.578 312.406 156.026 312.779 156.39C313.162 156.745 313.652 156.922 314.249 156.922C314.688 156.922 315.07 156.819 315.397 156.614C315.724 156.399 315.971 156.119 316.139 155.774C316.316 155.429 316.405 155.055 316.405 154.654C316.405 154.057 316.218 153.562 315.845 153.17C315.481 152.769 314.977 152.568 314.333 152.568C313.913 152.568 313.54 152.661 313.213 152.848C312.886 153.035 312.611 153.296 312.387 153.632L311.155 153.31L312.079 148.242H317.273V149.404H313.101L312.625 152.064C313.176 151.616 313.801 151.392 314.501 151.392ZM320.496 153.072H319.166V151.406H320.496V153.072ZM320.496 158H319.166V156.348H320.496V158ZM325.358 158.112C323.212 158.112 322.138 156.437 322.138 153.086C322.138 149.773 323.198 148.116 325.316 148.116C326.53 148.116 327.37 148.592 327.836 149.544C328.303 150.496 328.536 151.681 328.536 153.1C328.536 154.537 328.303 155.732 327.836 156.684C327.37 157.636 326.544 158.112 325.358 158.112ZM325.358 156.908C326.618 156.908 327.248 155.653 327.248 153.142C327.248 151.938 327.099 151 326.8 150.328C326.502 149.656 326.007 149.32 325.316 149.32C324.607 149.32 324.112 149.665 323.832 150.356C323.562 151.037 323.426 151.961 323.426 153.128C323.426 154.276 323.566 155.195 323.846 155.886C324.136 156.567 324.64 156.908 325.358 156.908ZM333.215 158.112C331.069 158.112 329.995 156.437 329.995 153.086C329.995 149.773 331.055 148.116 333.173 148.116C334.387 148.116 335.227 148.592 335.693 149.544C336.16 150.496 336.393 151.681 336.393 153.1C336.393 154.537 336.16 155.732 335.693 156.684C335.227 157.636 334.401 158.112 333.215 158.112ZM333.215 156.908C334.475 156.908 335.105 155.653 335.105 153.142C335.105 151.938 334.956 151 334.657 150.328C334.359 149.656 333.864 149.32 333.173 149.32C332.464 149.32 331.969 149.665 331.689 150.356C331.419 151.037 331.283 151.961 331.283 153.128C331.283 154.276 331.423 155.195 331.703 155.886C331.993 156.567 332.497 156.908 333.215 156.908Z" fill="#101825"/>
<rect y="176" width="64" height="30" rx="7" fill="#EDF0F4"/>
<path d="M18.602 186.242H19.862V196H18.602V188.846H16.068V187.796H17.734C18.0327 187.796 18.252 187.735 18.392 187.614C18.532 187.483 18.602 187.269 18.602 186.97V186.242ZM26.501 189.392C27.117 189.392 27.6677 189.541 28.153 189.84C28.6477 190.129 29.0304 190.526 29.301 191.03C29.581 191.525 29.721 192.066 29.721 192.654C29.721 193.27 29.5717 193.844 29.273 194.376C28.9744 194.899 28.559 195.319 28.027 195.636C27.5044 195.953 26.9164 196.112 26.263 196.112C25.6937 196.112 25.1664 195.991 24.681 195.748C24.1957 195.496 23.7944 195.155 23.477 194.726C23.1597 194.297 22.9544 193.807 22.861 193.256L24.093 193.046C24.177 193.578 24.4057 194.026 24.779 194.39C25.1617 194.745 25.6517 194.922 26.249 194.922C26.6877 194.922 27.0704 194.819 27.397 194.614C27.7237 194.399 27.971 194.119 28.139 193.774C28.3164 193.429 28.405 193.055 28.405 192.654C28.405 192.057 28.2184 191.562 27.845 191.17C27.481 190.769 26.977 190.568 26.333 190.568C25.913 190.568 25.5397 190.661 25.213 190.848C24.8864 191.035 24.611 191.296 24.387 191.632L23.155 191.31L24.079 186.242H29.273V187.404H25.101L24.625 190.064C25.1757 189.616 25.801 189.392 26.501 189.392ZM32.4961 191.072H31.1661V189.406H32.4961V191.072ZM32.4961 196H31.1661V194.348H32.4961V196ZM37.2743 196.112C36.6116 196.112 36.0143 195.995 35.4823 195.762C34.9503 195.519 34.5303 195.165 34.2223 194.698C33.9143 194.231 33.7603 193.671 33.7603 193.018L35.0063 192.948C35.0063 193.564 35.2163 194.045 35.6363 194.39C36.0656 194.735 36.6256 194.908 37.3163 194.908C37.9603 194.908 38.4876 194.749 38.8983 194.432C39.309 194.105 39.5143 193.648 39.5143 193.06C39.5143 192.379 39.2576 191.931 38.7443 191.716C38.2403 191.501 37.5963 191.394 36.8123 191.394V190.358C37.4843 190.367 38.0163 190.246 38.4083 189.994C38.8003 189.733 38.9963 189.341 38.9963 188.818C38.9963 188.351 38.833 187.987 38.5063 187.726C38.1796 187.465 37.7596 187.334 37.2463 187.334C36.705 187.334 36.2756 187.483 35.9583 187.782C35.641 188.081 35.4776 188.482 35.4683 188.986L34.2363 188.902C34.2363 188.342 34.3716 187.852 34.6423 187.432C34.913 187.012 35.277 186.69 35.7343 186.466C36.201 186.242 36.719 186.13 37.2883 186.13C37.839 186.13 38.3383 186.237 38.7863 186.452C39.2436 186.657 39.603 186.956 39.8643 187.348C40.1256 187.731 40.2563 188.179 40.2563 188.692C40.2563 189.243 40.0976 189.686 39.7803 190.022C39.4723 190.358 39.0756 190.591 38.5903 190.722C39.2436 190.89 39.7663 191.17 40.1583 191.562C40.5596 191.954 40.7603 192.472 40.7603 193.116C40.7603 193.741 40.6016 194.283 40.2843 194.74C39.9763 195.188 39.5563 195.529 39.0243 195.762C38.5016 195.995 37.9183 196.112 37.2743 196.112ZM45.2153 196.112C43.0687 196.112 41.9953 194.437 41.9953 191.086C41.9953 187.773 43.0547 186.116 45.1733 186.116C46.3867 186.116 47.2267 186.592 47.6933 187.544C48.16 188.496 48.3933 189.681 48.3933 191.1C48.3933 192.537 48.16 193.732 47.6933 194.684C47.2267 195.636 46.4007 196.112 45.2153 196.112ZM45.2153 194.908C46.4753 194.908 47.1053 193.653 47.1053 191.142C47.1053 189.938 46.956 189 46.6573 188.328C46.3587 187.656 45.864 187.32 45.1733 187.32C44.464 187.32 43.9693 187.665 43.6893 188.356C43.4187 189.037 43.2833 189.961 43.2833 191.128C43.2833 192.276 43.4233 193.195 43.7033 193.886C43.9927 194.567 44.4967 194.908 45.2153 194.908Z" fill="#101825"/>
<rect x="72" y="176" width="64" height="30" rx="7" fill="#EDF0F4"/>
<path d="M90.602 186.242H91.862V196H90.602V188.846H88.068V187.796H89.734C90.0327 187.796 90.252 187.735 90.392 187.614C90.532 187.483 90.602 187.269 90.602 186.97V186.242ZM98.683 189.602C99.2804 189.602 99.8217 189.747 100.307 190.036C100.802 190.316 101.194 190.703 101.483 191.198C101.772 191.693 101.917 192.234 101.917 192.822C101.917 193.438 101.763 193.998 101.455 194.502C101.147 195.006 100.732 195.403 100.209 195.692C99.6957 195.972 99.131 196.112 98.515 196.112C97.899 196.112 97.325 195.972 96.793 195.692C96.2704 195.403 95.855 195.011 95.547 194.516C95.239 194.012 95.085 193.452 95.085 192.836C95.085 192.22 95.2624 191.623 95.617 191.044L98.529 186.242H99.971L97.759 189.784C98.0577 189.663 98.3657 189.602 98.683 189.602ZM98.515 194.922C98.907 194.922 99.2664 194.833 99.593 194.656C99.9197 194.469 100.176 194.217 100.363 193.9C100.559 193.573 100.657 193.209 100.657 192.808C100.657 192.407 100.559 192.047 100.363 191.73C100.176 191.413 99.9197 191.165 99.593 190.988C99.2664 190.801 98.907 190.708 98.515 190.708C98.123 190.708 97.759 190.801 97.423 190.988C97.0964 191.165 96.835 191.413 96.639 191.73C96.4524 192.047 96.359 192.411 96.359 192.822C96.359 193.223 96.4524 193.587 96.639 193.914C96.835 194.231 97.0964 194.479 97.423 194.656C97.759 194.833 98.123 194.922 98.515 194.922ZM104.496 191.072H103.166V189.406H104.496V191.072ZM104.496 196H103.166V194.348H104.496V196ZM109.358 196.112C107.212 196.112 106.138 194.437 106.138 191.086C106.138 187.773 107.198 186.116 109.316 186.116C110.53 186.116 111.37 186.592 111.836 187.544C112.303 188.496 112.536 189.681 112.536 191.1C112.536 192.537 112.303 193.732 111.836 194.684C111.37 195.636 110.544 196.112 109.358 196.112ZM109.358 194.908C110.618 194.908 111.248 193.653 111.248 191.142C111.248 189.938 111.099 189 110.8 188.328C110.502 187.656 110.007 187.32 109.316 187.32C108.607 187.32 108.112 187.665 107.832 188.356C107.562 189.037 107.426 189.961 107.426 191.128C107.426 192.276 107.566 193.195 107.846 193.886C108.136 194.567 108.64 194.908 109.358 194.908ZM117.215 196.112C115.069 196.112 113.995 194.437 113.995 191.086C113.995 187.773 115.055 186.116 117.173 186.116C118.387 186.116 119.227 186.592 119.693 187.544C120.16 188.496 120.393 189.681 120.393 191.1C120.393 192.537 120.16 193.732 119.693 194.684C119.227 195.636 118.401 196.112 117.215 196.112ZM117.215 194.908C118.475 194.908 119.105 193.653 119.105 191.142C119.105 189.938 118.956 189 118.657 188.328C118.359 187.656 117.864 187.32 117.173 187.32C116.464 187.32 115.969 187.665 115.689 188.356C115.419 189.037 115.283 189.961 115.283 191.128C115.283 192.276 115.423 193.195 115.703 193.886C115.993 194.567 116.497 194.908 117.215 194.908Z" fill="#101825"/>
<rect x="144" y="176" width="64" height="30" rx="7" fill="#EDF0F4"/>
<path d="M162.602 186.242H163.862V196H162.602V188.846H160.068V187.796H161.734C162.033 187.796 162.252 187.735 162.392 187.614C162.532 187.483 162.602 187.269 162.602 186.97V186.242ZM170.683 189.602C171.28 189.602 171.822 189.747 172.307 190.036C172.802 190.316 173.194 190.703 173.483 191.198C173.772 191.693 173.917 192.234 173.917 192.822C173.917 193.438 173.763 193.998 173.455 194.502C173.147 195.006 172.732 195.403 172.209 195.692C171.696 195.972 171.131 196.112 170.515 196.112C169.899 196.112 169.325 195.972 168.793 195.692C168.27 195.403 167.855 195.011 167.547 194.516C167.239 194.012 167.085 193.452 167.085 192.836C167.085 192.22 167.262 191.623 167.617 191.044L170.529 186.242H171.971L169.759 189.784C170.058 189.663 170.366 189.602 170.683 189.602ZM170.515 194.922C170.907 194.922 171.266 194.833 171.593 194.656C171.92 194.469 172.176 194.217 172.363 193.9C172.559 193.573 172.657 193.209 172.657 192.808C172.657 192.407 172.559 192.047 172.363 191.73C172.176 191.413 171.92 191.165 171.593 190.988C171.266 190.801 170.907 190.708 170.515 190.708C170.123 190.708 169.759 190.801 169.423 190.988C169.096 191.165 168.835 191.413 168.639 191.73C168.452 192.047 168.359 192.411 168.359 192.822C168.359 193.223 168.452 193.587 168.639 193.914C168.835 194.231 169.096 194.479 169.423 194.656C169.759 194.833 170.123 194.922 170.515 194.922ZM176.496 191.072H175.166V189.406H176.496V191.072ZM176.496 196H175.166V194.348H176.496V196ZM181.274 196.112C180.612 196.112 180.014 195.995 179.482 195.762C178.95 195.519 178.53 195.165 178.222 194.698C177.914 194.231 177.76 193.671 177.76 193.018L179.006 192.948C179.006 193.564 179.216 194.045 179.636 194.39C180.066 194.735 180.626 194.908 181.316 194.908C181.96 194.908 182.488 194.749 182.898 194.432C183.309 194.105 183.514 193.648 183.514 193.06C183.514 192.379 183.258 191.931 182.744 191.716C182.24 191.501 181.596 191.394 180.812 191.394V190.358C181.484 190.367 182.016 190.246 182.408 189.994C182.8 189.733 182.996 189.341 182.996 188.818C182.996 188.351 182.833 187.987 182.506 187.726C182.18 187.465 181.76 187.334 181.246 187.334C180.705 187.334 180.276 187.483 179.958 187.782C179.641 188.081 179.478 188.482 179.468 188.986L178.236 188.902C178.236 188.342 178.372 187.852 178.642 187.432C178.913 187.012 179.277 186.69 179.734 186.466C180.201 186.242 180.719 186.13 181.288 186.13C181.839 186.13 182.338 186.237 182.786 186.452C183.244 186.657 183.603 186.956 183.864 187.348C184.126 187.731 184.256 188.179 184.256 188.692C184.256 189.243 184.098 189.686 183.78 190.022C183.472 190.358 183.076 190.591 182.59 190.722C183.244 190.89 183.766 191.17 184.158 191.562C184.56 191.954 184.76 192.472 184.76 193.116C184.76 193.741 184.602 194.283 184.284 194.74C183.976 195.188 183.556 195.529 183.024 195.762C182.502 195.995 181.918 196.112 181.274 196.112ZM189.215 196.112C187.069 196.112 185.995 194.437 185.995 191.086C185.995 187.773 187.055 186.116 189.173 186.116C190.387 186.116 191.227 186.592 191.693 187.544C192.16 188.496 192.393 189.681 192.393 191.1C192.393 192.537 192.16 193.732 191.693 194.684C191.227 195.636 190.401 196.112 189.215 196.112ZM189.215 194.908C190.475 194.908 191.105 193.653 191.105 191.142C191.105 189.938 190.956 189 190.657 188.328C190.359 187.656 189.864 187.32 189.173 187.32C188.464 187.32 187.969 187.665 187.689 188.356C187.419 189.037 187.283 189.961 187.283 191.128C187.283 192.276 187.423 193.195 187.703 193.886C187.993 194.567 188.497 194.908 189.215 194.908Z" fill="#101825"/>
</svg>
