<svg width="141" height="40" viewBox="0 0 141 40" fill="none" xmlns="http://www.w3.org/2000/svg">
<g id="Group 83">
<rect id="Rectangle 72" x="0.25" y="0.25" width="140.5" height="39.5" rx="5.75" fill="#101825" stroke="white" stroke-width="0.5"/>
<path id="Google Play" d="M69.284 21.7536C66.938 21.7646 65.0441 23.6717 65.0514 26.0156C65.0588 28.3594 66.9646 30.2546 69.3107 30.2509C71.6568 30.2473 73.5567 28.3462 73.5567 26.0023C73.5732 24.867 73.1277 23.7737 72.3222 22.9727C71.5167 22.1717 70.4203 21.7318 69.284 21.7536ZM69.284 28.5815C68.2266 28.6554 67.2314 28.076 66.7745 27.1204C66.3176 26.1648 66.4917 25.0273 67.2137 24.2519C67.9357 23.4764 69.0587 23.2208 70.0457 23.6071C71.0327 23.9934 71.683 24.9433 71.6855 26.0023C71.7181 26.6648 71.4815 27.3123 71.0293 27.7979C70.5771 28.2836 69.9478 28.5661 69.284 28.5815ZM59.9682 21.7536C57.6209 21.7591 55.7219 23.6637 55.7256 26.0089C55.7293 28.3541 57.6342 30.2528 59.9816 30.251C62.3289 30.2491 64.2309 28.3475 64.2309 26.0023C64.2474 24.867 63.8019 23.7737 62.9964 22.9727C62.1909 22.1717 61.0945 21.7318 59.9582 21.7536H59.9682ZM59.9682 28.5815C58.9103 28.6596 57.9122 28.083 57.452 27.128C56.9919 26.1731 57.1633 25.034 57.8843 24.2565C58.6052 23.479 59.7289 23.2212 60.7171 23.6067C61.7053 23.9922 62.3569 24.9424 62.3597 26.0023C62.3923 26.6648 62.1556 27.3123 61.7035 27.7979C61.2513 28.2836 60.6219 28.5661 59.9582 28.5815H59.9682ZM48.8713 23.0632V24.8626H53.194C53.1262 25.7102 52.7736 26.5099 52.1934 27.1319C51.3189 28.0219 50.1086 28.5012 48.8613 28.4515C46.2087 28.4515 44.0583 26.3032 44.0583 23.653C44.0583 21.0028 46.2087 18.8545 48.8613 18.8545C50.0799 18.8346 51.2566 19.2984 52.1334 20.1441L53.4042 18.8745C52.2083 17.6647 50.5731 16.9903 48.8713 17.005C46.4488 16.9108 44.1688 18.1483 42.9295 20.2301C41.6902 22.3118 41.6902 24.9042 42.9295 26.9859C44.1688 29.0677 46.4488 30.3052 48.8713 30.211C50.6042 30.2892 52.2862 29.6149 53.4842 28.3616C54.5325 27.2108 55.0922 25.6981 55.0452 24.1428C55.0484 23.764 55.0149 23.3856 54.9451 23.0132L48.8713 23.0632ZM94.2096 24.4628C93.6753 22.8924 92.2263 21.8146 90.5673 21.7536C89.461 21.7514 88.4031 22.2068 87.6449 23.0117C86.8866 23.8166 86.4957 24.8991 86.5648 26.0023C86.5402 27.1312 86.9762 28.2216 87.7726 29.0229C88.569 29.8242 89.6573 30.2675 90.7874 30.251C92.2092 30.2587 93.5398 29.5527 94.3297 28.3716L92.8787 27.3719C92.4382 28.1056 91.6438 28.5537 90.7874 28.5515C89.9005 28.5853 89.083 28.0739 88.7262 27.2619L94.4197 24.9126L94.2096 24.4628ZM88.406 25.8823C88.365 25.2577 88.5774 24.6428 88.9953 24.1764C89.4132 23.71 90.0014 23.4313 90.6273 23.4031C91.2871 23.3596 91.9092 23.7137 92.2083 24.3028L88.406 25.8823ZM83.7831 30.0011H85.6542V17.5049H83.7831V30.0011ZM80.7212 22.7033H80.6511C80.0807 22.0662 79.2653 21.7025 78.4097 21.7036C76.1385 21.8136 74.3535 23.6855 74.3535 25.9573C74.3535 28.2291 76.1385 30.101 78.4097 30.211C79.2681 30.2254 80.0888 29.8594 80.6511 29.2113H80.7112V29.8211C80.7112 31.4506 79.8406 32.3204 78.4398 32.3204C77.4855 32.298 76.6394 31.7016 76.2984 30.8108L74.6674 31.4906C75.2955 33.017 76.788 34.0097 78.4398 33.9999C80.6311 33.9999 82.4422 32.7102 82.4422 29.5712V22.0035H80.7212V22.7033ZM78.5798 28.5815C77.2419 28.4637 76.2157 27.3442 76.2157 26.0023C76.2157 24.6604 77.2419 23.5409 78.5798 23.4231C79.2264 23.4562 79.8321 23.7487 80.2597 24.2343C80.6874 24.7199 80.9007 25.3574 80.8513 26.0023C80.9064 26.6501 80.6938 27.2923 80.2629 27.7795C79.8319 28.2667 79.2201 28.5565 78.5698 28.5815H78.5798ZM102.975 17.5049H98.5022V30.0011H100.373V25.2625H102.985C104.439 25.3668 105.829 24.6512 106.587 23.408C107.346 22.1649 107.346 20.6025 106.587 19.3593C105.829 18.1162 104.439 17.4005 102.985 17.5049H102.975ZM102.975 23.503H100.363V19.2443H103.015C104.2 19.2443 105.161 20.2044 105.161 21.3887C105.161 22.573 104.2 23.533 103.015 23.533L102.975 23.503ZM114.512 21.7036C113.12 21.6205 111.811 22.3705 111.18 23.613L112.841 24.3028C113.176 23.6867 113.843 23.326 114.542 23.3831C115.022 23.3271 115.504 23.466 115.881 23.7687C116.257 24.0713 116.496 24.5123 116.543 24.9926V25.1226C115.943 24.8046 115.272 24.6398 114.592 24.6427C112.801 24.6427 110.99 25.6424 110.99 27.4518C111.026 28.2313 111.376 28.9632 111.96 29.481C112.544 29.9988 113.313 30.2585 114.092 30.201C115.052 30.2699 115.973 29.8098 116.493 29.0014H116.553V30.0011H118.355V25.1925C118.355 23.0032 116.694 21.7336 114.562 21.7336L114.512 21.7036ZM114.282 28.5515C113.672 28.5515 112.821 28.2416 112.821 27.4918C112.821 26.4921 113.882 26.1622 114.822 26.1622C115.417 26.1476 116.004 26.2926 116.523 26.5821C116.394 27.7012 115.459 28.5541 114.332 28.5815L114.282 28.5515ZM124.919 22.0035L122.777 27.4219H122.717L120.496 22.0035H118.495L121.827 29.5812L119.926 33.7899H121.877L127 22.0035H124.919ZM108.098 30.0011H109.969V17.5049H108.098V30.0011Z" fill="white"/>
<path id="GET IT ON" d="M48.0965 10.2361C48.1309 10.9446 47.8589 11.6355 47.3439 12.1476C46.7683 12.7171 45.9656 13.0264 45.1363 12.9982C43.8642 12.9888 42.7221 12.2539 42.238 11.1335C41.7538 10.0131 42.022 8.7254 42.9186 7.86588C43.5011 7.29943 44.304 6.98804 45.1363 7.0057C45.5605 7.00436 45.9805 7.08567 46.3705 7.24464C46.7336 7.38413 47.0569 7.60358 47.3138 7.88499L46.7819 8.39154C46.3759 7.93151 45.7663 7.68016 45.1363 7.71296C44.5029 7.71 43.8957 7.95293 43.4545 8.38574C43.0133 8.81855 42.7763 9.40388 42.7982 10.0067C42.7847 10.9178 43.3481 11.747 44.2261 12.1087C45.104 12.4704 46.1243 12.2934 46.812 11.6602C47.1208 11.3415 47.2989 10.9276 47.3138 10.4942H45.1363V9.80604H48.0563C48.0831 9.94798 48.0965 10.0919 48.0965 10.2361ZM52.6923 7.84676H49.983V9.66268H52.4515V10.3508H49.983V12.1667H52.6923V12.874H49.1802V7.13951H52.6923V7.84676ZM55.9837 12.874H55.211V7.84676H53.5252V7.13951H57.7096V7.84676H55.9837V12.874ZM60.6598 12.874V7.13951H61.4325V12.874H60.6598ZM64.8643 12.874H64.0917V7.84676H62.4058V7.13951H66.5401V7.84676H64.8643V12.874ZM74.3772 12.1285C73.1559 13.2852 71.1831 13.2852 69.9619 12.1285C68.7781 10.935 68.7781 9.06894 69.9619 7.87543C70.5459 7.31512 71.3406 7 72.1695 7C72.9985 7 73.7931 7.31512 74.3772 7.87543C75.566 9.06702 75.566 10.9369 74.3772 12.1285ZM70.5339 11.6506C71.4383 12.5085 72.9007 12.5085 73.8052 11.6506C74.6934 10.718 74.6934 9.29551 73.8052 8.36286C72.9007 7.50502 71.4383 7.50502 70.5339 8.36286C69.6456 9.29551 69.6456 10.718 70.5339 11.6506ZM76.354 12.874V7.13951H77.2972L80.2273 11.6028V7.13951H81V12.874H80.1972L77.1367 8.20039V12.874H76.354Z" fill="white" stroke="white" stroke-width="0.2"/>
<path id="Polygon 1" d="M34.5 19.134C35.1667 19.5189 35.1667 20.4811 34.5 20.866L16.5 31.2583C15.8333 31.6432 15 31.1621 15 30.3923L15 9.60769C15 8.83789 15.8333 8.35677 16.5 8.74167L34.5 19.134Z" fill="white"/>
</g>
</svg>
