<svg width="61" height="40" viewBox="0 0 61 40" fill="none" xmlns="http://www.w3.org/2000/svg">
<path d="M20.8434 25H19.4294L18.6314 22.76H14.5574L13.7454 25H12.3314L16.0834 15.242H17.1054L20.8434 25ZM16.6014 17.118L14.9774 21.584H18.1974L16.6014 17.118ZM28.3582 16.348L22.8282 23.838H28.5122V25H21.2182V23.908L26.7482 16.404H21.5542V15.242H28.3582V16.348Z" fill="#101825"/>
<g clip-path="url(#clip0_1655_26)">
<path d="M37.9766 19C37.5547 19 37.3438 19.5156 37.6484 19.8203L40.6484 22.8203C40.8359 23.0078 41.1406 23.0078 41.3281 22.8203L44.3281 19.8203C44.6328 19.5156 44.4219 19 44 19H37.9766Z" fill="#101825"/>
</g>
<rect x="0.5" y="0.5" width="60" height="39" rx="7.5" stroke="#EDF0F4"/>
<defs>
<clipPath id="clip0_1655_26">
<rect width="16" height="16" fill="white" transform="translate(33 12)"/>
</clipPath>
</defs>
</svg>
