<svg width="80" height="80" viewBox="0 0 80 80" fill="none" xmlns="http://www.w3.org/2000/svg">
<g id="Group 25">
<circle id="Ellipse 26" cx="40" cy="40" r="40" fill="#00DDC1"/>
<g id="Group 7">
<mask id="mask0_584_267" style="mask-type:alpha" maskUnits="userSpaceOnUse" x="0" y="0" width="80" height="80">
<rect id="Rectangle 49" width="80" height="80" rx="40" fill="#00DDC1"/>
</mask>
<g mask="url(#mask0_584_267)">
<path id="Vector" d="M23.8674 54.7486L49.1188 80H80V52.4046L53.8335 26.2379L23.8674 54.7486Z" fill="#00BAA0"/>
<g id="Group">
<g id="Group_2">
<path id="Vector_2" d="M26.6799 54.7482H23.8674L30.261 48.3546L31.6672 49.7608L26.6799 54.7482Z" fill="#EEF4FF"/>
</g>
<g id="Group_3">
<path id="Vector_3" d="M26.6803 54.7475H25.2742L30.9646 49.057L31.6676 49.7601L26.6803 54.7475Z" fill="#D6E9F8"/>
</g>
</g>
<g id="Group_4">
<path id="Vector_4" d="M44.3871 26.9124L53.1041 35.6293L38.4118 50.3215L29.6948 41.6046L44.3871 26.9124Z" fill="#EEF4FF"/>
<path id="Vector_5" d="M48.7802 31.3062L53.1035 35.6295L38.4112 50.3218L34.0879 45.9984L48.7802 31.3062Z" fill="#D6E9F8"/>
</g>
<g id="Group_5">
<path id="Vector_6" d="M50.1561 36.3375L38.0327 48.4609L31.5652 41.9935L43.6887 29.8701L50.1561 36.3375Z" fill="#D6E9F8"/>
<path id="Vector_7" d="M50.157 36.3379L38.0336 48.4614L34.8351 45.2628L46.9584 33.1393L50.157 36.3379Z" fill="#B2D7F3"/>
</g>
<g id="Group_6">
<path id="Vector_8" d="M31.3107 45.6135L34.4038 48.7067L31.3107 51.7998L28.2176 48.7067L31.3107 45.6135Z" fill="#7A3EB4"/>
<path id="Vector_9" d="M32.8577 47.1604L34.4042 48.707L31.3111 51.8002L29.7646 50.2536L32.8577 47.1604Z" fill="#613393"/>
</g>
<g id="Group_7">
<path id="Vector_10" d="M34.2378 49.7366L29.394 44.8928L29.6926 41.6098L30.4338 40.8687L36.7698 47.2045L34.2378 49.7366Z" fill="#EEF4FF"/>
<path id="Vector_11" d="M35.1279 50.6269L32.2955 47.7945L34.8275 45.2626L38.4484 48.8835L38.4103 50.3277L35.1279 50.6269Z" fill="#D6E9F8"/>
</g>
<g id="Group_8">
<path id="Vector_12" d="M30.8137 42.7354L35.3883 38.1608L41.8558 44.6282L37.2812 49.2028L30.8137 42.7354Z" fill="#FF6379"/>
<path id="Vector_13" d="M34.0835 46.0044L38.6581 41.4299L41.8567 44.6284L37.2821 49.2029L34.0835 46.0044Z" fill="#FF415B"/>
</g>
<g id="Group_9">
<path id="Vector_14" d="M35.9551 37.5922L39.9108 41.5478L38.8563 42.6023L34.9006 38.6466L35.9551 37.5922Z" fill="#B2D7F3"/>
<path id="Vector_15" d="M39.2246 40.8613L42.4233 44.0598L41.3688 45.1143L38.1701 41.9158L39.2246 40.8613Z" fill="#8BBBFF"/>
</g>
<g id="Group_10">
<path id="Vector_16" d="M37.7438 40.4463L51.5714 26.6185L53.3991 28.4463L39.5715 42.2741L37.7438 40.4463Z" fill="#B2D7F3"/>
<path id="Vector_17" d="M38.692 41.3948L52.5196 27.567L53.3983 28.4457L39.5707 42.2735L38.692 41.3948Z" fill="#8BBBFF"/>
</g>
<g id="Group_11">
<path id="Vector_18" d="M49.4456 21.8492L58.1625 30.5662L55.6317 33.097L46.9147 24.3801L49.4456 21.8492Z" fill="#D6E9F8"/>
<path id="Vector_19" d="M53.8411 26.2433L58.1644 30.5666L55.6336 33.0974L51.3102 28.7741L53.8411 26.2433Z" fill="#B2D7F3"/>
</g>
<g id="Group_12">
<path id="Vector_20" d="M44.3844 26.9106L48.778 31.3043L46.9502 33.1322L42.5566 28.7385L44.3844 26.9106Z" fill="#EEF4FF"/>
<path id="Vector_21" d="M48.7787 31.3044L53.102 35.6278L51.2742 37.4557L46.9509 33.1323L48.7787 31.3044Z" fill="#D6E9F8"/>
</g>
</g>
</g>
</g>
</svg>
