<svg width="80" height="80" viewBox="0 0 80 80" fill="none" xmlns="http://www.w3.org/2000/svg">
<g id="Group 26">
<circle id="Ellipse 25" cx="40" cy="40" r="40" fill="#FFE377"/>
<g id="Group 15">
<mask id="mask0_584_306" style="mask-type:alpha" maskUnits="userSpaceOnUse" x="0" y="0" width="80" height="80">
<rect id="Rectangle 50" width="80" height="80" rx="40" fill="#FFE377"/>
</mask>
<g mask="url(#mask0_584_306)">
<path id="Vector" d="M34.7122 49.3175L65.3436 79.9489H80V57.0251L53.5023 30.5273L34.7122 49.3175Z" fill="#EDBE00"/>
<path id="Vector_2" d="M53.0865 30.0813C49.928 26.9228 44.8068 26.9228 41.6483 30.0813L40 31.7295L38.3518 30.0813C35.1932 26.9228 30.0721 26.9228 26.9135 30.0813C23.7549 33.2399 23.7549 38.361 26.9135 41.5196L40 54.6061L40.4124 54.1936L53.0865 41.5196C56.2451 38.361 56.2451 33.2399 53.0865 30.0813Z" fill="#FF6379"/>
<path id="Vector_3" d="M53.0865 30.0813C49.928 26.9228 44.8068 26.9228 41.6483 30.0813L40 31.7295V54.6061L40.4124 54.1936L53.0865 41.5196C56.2451 38.361 56.2451 33.2399 53.0865 30.0813Z" fill="#FF1F3E"/>
</g>
</g>
</g>
</svg>
