<svg width="80" height="80" viewBox="0 0 80 80" fill="none" xmlns="http://www.w3.org/2000/svg">
<g id="Group 27">
<circle id="Ellipse 24" cx="40" cy="40" r="40" fill="#FF9E22"/>
<g id="Group 14">
<mask id="mask0_584_315" style="mask-type:alpha" maskUnits="userSpaceOnUse" x="0" y="0" width="80" height="80">
<rect id="Rectangle 51" width="80" height="80" rx="40" fill="#FF9E22"/>
</mask>
<g mask="url(#mask0_584_315)">
<path id="Vector" d="M45.2398 31.2927L39.4731 25.526L37.722 33.9281L40.3221 36.5282L39.6107 37.2396L31.0695 28.6984L30.771 30.8764L28.593 31.1748L36.403 38.9847L36.4228 40.4275L33.8227 37.8275L25.4206 39.5785L31.2489 45.4068L23.4771 51.6842L51.793 80.0001H80V51.1033L52.029 23.1323L45.2398 31.2927Z" fill="#E17726"/>
<path id="Vector_2" d="M47.3994 26.3228C47.6781 27.0516 47.5134 27.8751 46.9617 28.4268L38.1188 37.2697L38.5008 40.1878L41.6779 37.0108L42.5236 41.2963L50.326 33.494C50.8981 32.9218 51.7628 32.7597 52.5028 33.0868C53.8304 33.6738 55.451 33.3874 56.4927 32.2273C57.6252 30.9661 57.67 29.0194 56.591 27.7122C55.5873 26.4963 54.0539 26.2386 52.7085 26.7694C53.3402 25.626 53.0633 24.0617 52.0288 23.1331C50.9389 22.1547 49.2393 22.1611 48.1563 23.1472C47.2412 23.9805 46.9888 25.2494 47.3994 26.3228ZM33.4337 52.1559C33.1064 51.416 33.2687 50.5512 33.8409 49.9791L41.0725 42.7474L40.6241 40.4753L37.2597 43.8397L36.5986 38.7898L28.7736 46.6148C28.2219 47.1665 27.3984 47.3312 26.6695 47.0525C25.5962 46.642 24.3273 46.8943 23.4941 47.8094C22.5079 48.8924 22.5014 50.592 23.48 51.6819C24.4086 52.7163 25.9728 52.9933 27.1163 52.3617C26.5855 53.707 26.8431 55.2403 28.0591 56.2441C29.3663 57.3232 31.313 57.2784 32.5742 56.1458C33.7343 55.1041 34.0208 53.4836 33.4337 52.1559Z" fill="#EEF4FF"/>
<path id="Vector_3" d="M50.326 33.4933C50.8981 32.9211 51.7629 32.7589 52.5029 33.0861C53.8305 33.6731 55.451 33.3867 56.4928 32.2266C57.6253 30.9654 57.67 29.0187 56.591 27.7115C55.5873 26.4955 54.054 26.2379 52.7086 26.7687L41.808 37.6692L42.5236 41.2955L50.326 33.4933ZM33.4337 52.1551C33.1065 51.4151 33.2688 50.5504 33.8409 49.9783L41.0726 42.7466L40.6241 40.4746L37.2598 43.8389L37.072 42.4051L27.1163 52.3609C26.5856 53.7062 26.8432 55.2396 28.0591 56.2434C29.3664 57.3225 31.3131 57.2777 32.5742 56.1451C33.7343 55.1033 34.0209 53.4828 33.4337 52.1551Z" fill="#D6E9F8"/>
<g id="Group">
<path id="Vector_4" d="M25.4209 36.0767L33.823 37.8278L25.4209 39.5788V36.0767Z" fill="#613393"/>
<path id="Vector_5" d="M39.4728 25.527L37.7217 33.9291L35.9707 25.527H39.4728Z" fill="#613393"/>
<path id="Vector_6" d="M31.0692 28.699L35.7722 35.8784L28.5928 31.1754L31.0692 28.699Z" fill="#613393"/>
</g>
</g>
</g>
</g>
</svg>
