<svg width="80" height="80" viewBox="0 0 80 80" fill="none" xmlns="http://www.w3.org/2000/svg">
<g id="Group 39">
<circle id="Ellipse 18" cx="40" cy="40" r="40" fill="#A160E4"/>
<g id="Group 10">
<mask id="mask0_584_373" style="mask-type:alpha" maskUnits="userSpaceOnUse" x="0" y="0" width="80" height="80">
<rect id="Rectangle 57" width="80" height="80" rx="40" fill="#A160E4"/>
</mask>
<g mask="url(#mask0_584_373)">
<path id="Vector" d="M40 65.4545C54.0581 65.4545 65.4545 54.0581 65.4545 40C65.4545 25.9418 54.0581 14.5454 40 14.5454C25.9418 14.5454 14.5454 25.9418 14.5454 40C14.5454 54.0581 25.9418 65.4545 40 65.4545Z" fill="#00DDC1"/>
<g id="Group">
<g id="Group_2">
<path id="Vector_2" d="M40 65.4546C54.0581 65.4546 65.4545 54.0582 65.4545 40.0001C65.4545 25.9419 54.0581 14.5455 40 14.5455C25.9418 14.5455 14.5454 25.9419 14.5454 40.0001C14.5454 54.0582 25.9418 65.4546 40 65.4546Z" fill="#A160E4"/>
</g>
<path id="Vector_3" d="M46.3155 27.0172L43.7164 24.418L45.274 34.2323L44.1262 35.3802L31.981 23.2349L28.8499 56.191L51.8181 79.0909C52.4655 79.1402 93.6363 79.0909 93.6363 79.0909V71.8182L46.5837 24.4094L46.3155 27.0172Z" fill="#7A3EB4"/>
<path id="Vector_4" d="M31.9695 31.271V23.2236C29.978 23.9687 28.5598 25.8883 28.5598 28.1398C28.5598 28.1874 28.5613 28.2346 28.5626 28.2819H28.5598V31.2593C28.5598 31.9243 28.95 32.4962 29.5131 32.7636V34.393L30.66 35.4205L31.9695 34.393V31.271Z" fill="#D6E9F8"/>
<g id="Group_3">
<path id="Vector_5" d="M43.7162 24.4174L42.9306 27.852L43.6682 31.2753H43.6675L43.7095 31.467L43.7682 31.7392L43.7692 31.739L43.9457 32.5442L43.2928 35.5233L39.9907 50.4269C39.5283 49.9324 38.9162 49.5692 38.2049 49.4194C36.3612 49.0307 34.5449 50.2151 34.1565 52.0591C33.9684 52.9523 34.1394 53.8654 34.638 54.6299C35.1365 55.3944 35.903 55.9192 36.7963 56.1074C37.033 56.1572 37.2711 56.1819 37.5076 56.1819C38.163 56.1819 38.8052 55.9924 39.3672 55.626C40.1296 55.1289 40.6533 54.3652 40.8428 53.4753H40.843L41.2088 51.8243L42.6565 52.1292L42.9639 50.6697L41.5315 50.3681L44.7786 35.7124H45.1491L45.3885 33.4938L45.1491 31.0665L43.7162 24.4174ZM39.385 53.1602C39.2791 53.6636 38.9833 54.0956 38.5524 54.3766C38.1215 54.6576 37.6068 54.7539 37.1036 54.6479C36.6002 54.5419 36.1682 54.2462 35.8872 53.8153C35.6062 53.3844 35.5099 52.8699 35.6159 52.3664C35.8067 51.4606 36.609 50.8373 37.5 50.8373C37.6312 50.8373 37.7641 50.8508 37.8974 50.8788C38.9366 51.0977 39.6039 52.1211 39.385 53.1602Z" fill="#D6E9F8"/>
<path id="Vector_6" d="M45.5183 35.7126L48.7673 50.3768L47.3349 50.6785L47.6423 52.138L49.09 51.8331L49.4558 53.4841H49.456C49.6455 54.374 50.1692 55.1376 50.9317 55.6348C51.4936 56.0012 52.1358 56.1907 52.7912 56.1907C53.0276 56.1907 53.2657 56.166 53.5025 56.1161C54.3957 55.928 55.1622 55.4033 55.6608 54.6387C56.1595 53.874 56.3304 52.9611 56.1423 52.0679C55.7539 50.224 53.9376 49.0395 52.0939 49.4281C51.3826 49.578 50.7705 49.9411 50.3081 50.4357L46.9851 35.4375L46.9835 35.4378L46.3494 32.5444L46.5279 31.73V31.7298L46.6274 31.2755H46.6263L47.3695 27.8437L46.5839 24.4088L45.1493 31.0666V35.7125H45.5183V35.7126ZM52.4012 50.8874C52.5345 50.8594 52.6674 50.8458 52.7986 50.8458C53.6896 50.8458 54.4919 51.4693 54.6827 52.375C54.7887 52.8784 54.6924 53.393 54.4114 53.8238C54.1304 54.2548 53.6985 54.5505 53.195 54.6565C52.6918 54.7626 52.1772 54.6661 51.7462 54.3851C51.3153 54.1041 51.0196 53.6722 50.9136 53.1689C50.6947 52.1298 51.362 51.1064 52.4012 50.8874Z" fill="#B2D7F3"/>
<g id="Group_4">
<path id="Vector_7" d="M45.1476 34.1055C45.4851 34.1055 45.7588 33.8318 45.7588 33.4943C45.7588 33.1567 45.4851 32.8831 45.1476 32.8831C44.81 32.8831 44.5364 33.1567 44.5364 33.4943C44.5364 33.8318 44.81 34.1055 45.1476 34.1055Z" fill="#464646"/>
<path id="Vector_8" d="M45.7594 33.4944C45.7594 33.832 45.4858 34.1056 45.1482 34.1056V32.8832C45.4858 32.8832 45.7594 33.1568 45.7594 33.4944Z" fill="#2D2D2D"/>
</g>
</g>
<path id="Vector_9" d="M31.9702 23.2236C31.3977 23.4378 30.873 23.7494 30.4154 24.1377V34.9104L31.9625 34.399L31.9702 34.3929V31.271V23.2236Z" fill="#B2D7F3"/>
<g id="Group_5">
<path id="Vector_10" d="M30.4143 56.1905H28.8489V34.3929H30.4143L31.9799 45.2917L30.4143 56.1905Z" fill="#B2D7F3"/>
<path id="Vector_11" d="M30.4142 34.3929H31.9797V56.1905H30.4142V34.3929Z" fill="#8BBBFF"/>
</g>
</g>
</g>
</g>
</g>
</svg>
