<svg width="80" height="80" viewBox="0 0 80 80" fill="none" xmlns="http://www.w3.org/2000/svg">
<g id="Group 28">
<circle id="Ellipse 23" cx="40" cy="40" r="40" fill="#ADCFFF"/>
<g id="Group 13">
<mask id="mask0_584_328" style="mask-type:alpha" maskUnits="userSpaceOnUse" x="0" y="0" width="80" height="80">
<rect id="Rectangle 52" width="80" height="80" rx="40" fill="#ADCFFF"/>
</mask>
<g mask="url(#mask0_584_328)">
<path id="Vector" d="M29.0402 57.6296L51.4107 80.0001H80V56.3638L47.6632 24.0494L29.0402 57.6296Z" fill="#8BBBFF"/>
<path id="Vector_2" d="M40.0005 42.8476C46.0538 42.8476 50.9609 37.9405 50.9609 31.8872C50.9609 25.834 46.0538 20.9269 40.0005 20.9269C33.9473 20.9269 29.0402 25.834 29.0402 31.8872C29.0402 37.9405 33.9473 42.8476 40.0005 42.8476Z" fill="#FF6379"/>
<path id="Vector_3" d="M29.0402 31.8865H50.9609V57.629H29.0402V31.8865Z" fill="#FF6379"/>
<path id="Vector_4" d="M40 20.9269V57.6298H50.9604V31.8873C50.9604 25.8339 46.0532 20.9269 40 20.9269Z" fill="#613393"/>
<path id="Vector_5" d="M40 20.9269V57.6298H50.9604V31.8873C50.9604 25.8339 46.0532 20.9269 40 20.9269Z" fill="#FF415B"/>
<g id="Group">
<g id="Group_2">
<path id="Vector_6" d="M40.0006 39.3241C44.1068 39.3241 47.4355 35.9953 47.4355 31.8891C47.4355 27.7829 44.1068 24.4542 40.0006 24.4542C35.8944 24.4542 32.5657 27.7829 32.5657 31.8891C32.5657 35.9953 35.8944 39.3241 40.0006 39.3241Z" fill="#FFCCBD"/>
<path id="Vector_7" d="M47.4349 31.8873C47.4349 35.9935 44.1061 39.3222 40 39.3222V24.4523C44.1062 24.4523 47.4349 27.781 47.4349 31.8873Z" fill="#FFBDA9"/>
</g>
<g id="Group_3">
<path id="Vector_8" d="M35.7107 30.9868C36.1625 30.9868 36.5287 30.6206 36.5287 30.1689C36.5287 29.7172 36.1625 29.351 35.7107 29.351C35.259 29.351 34.8928 29.7172 34.8928 30.1689C34.8928 30.6206 35.259 30.9868 35.7107 30.9868Z" fill="#2D2D2D"/>
<path id="Vector_9" d="M44.3014 30.9866C44.7532 30.9866 45.1194 30.6204 45.1194 30.1686C45.1194 29.7169 44.7532 29.3507 44.3014 29.3507C43.8497 29.3507 43.4835 29.7169 43.4835 30.1686C43.4835 30.6204 43.8497 30.9866 44.3014 30.9866Z" fill="#2D2D2D"/>
</g>
<g id="Group_4">
<path id="Vector_10" d="M40.0006 37.6417C41.6378 37.6417 42.9651 36.3145 42.9651 34.6772C42.9651 33.04 41.6378 31.7128 40.0006 31.7128C38.3634 31.7128 37.0361 33.04 37.0361 34.6772C37.0361 36.3145 38.3634 37.6417 40.0006 37.6417Z" fill="#00DDC1"/>
<path id="Vector_11" d="M42.9645 34.6773C42.9645 36.3145 41.6372 37.6417 40 37.6417V31.7129C41.6372 31.7128 42.9645 33.04 42.9645 34.6773Z" fill="#00BAA0"/>
<g id="Group_5">
<g id="Group_6">
<path id="Vector_12" d="M39.2544 32.6437H40.0001V36.7099H39.2544V32.6437Z" fill="#00BAA0"/>
</g>
<g id="Group_7">
<g id="Group_8">
<g id="Group_9">
<path id="Vector_13" d="M40.0001 32.6439H40.7459V36.7102H40.0001V32.6439Z" fill="#009A85"/>
</g>
</g>
</g>
</g>
</g>
</g>
<path id="Vector_14" d="M40 52.133L50.9604 50.1738V48.6588L40 50.618V52.133ZM40 42.2816V43.7967L50.9604 45.7559V44.2408L40 42.2816Z" fill="#AF3244"/>
<path id="Vector_15" d="M29.0402 54.0923L40.0005 52.1331V50.6181L29.0402 52.5773V54.0923ZM29.0402 40.3225V41.8376L40.0005 43.7969V42.2818L29.0402 40.3225Z" fill="#FF415B"/>
</g>
</g>
</g>
</svg>
