<svg width="80" height="80" viewBox="0 0 80 80" fill="none" xmlns="http://www.w3.org/2000/svg">
<g id="Group 31">
<circle id="Ellipse 20" cx="40" cy="40" r="40" fill="#FF6379"/>
<g id="Group 8">
<mask id="mask0_584_412" style="mask-type:alpha" maskUnits="userSpaceOnUse" x="0" y="0" width="80" height="80">
<rect id="Rectangle 55" width="80" height="80" rx="40" fill="#FF6379"/>
</mask>
<g mask="url(#mask0_584_412)">
<path id="Vector" d="M52.5953 34.1561L52.4453 34.3061L41.4496 23.3103L39.9994 25.8034V32.7809L39.5537 33.345L37.0092 30.8005L33.212 34.5977L36.2013 37.5869L24.6269 52.2327L52.1519 80H80V61.3636L52.5953 34.1561Z" fill="#FF415B"/>
<g id="Group">
<path id="Vector_2" d="M53.482 53.0414H45.609C44.1619 53.0414 42.9888 51.8683 42.9888 50.4212V30.8004H44.3882C50.8577 30.8004 56.1023 36.045 56.1023 42.5146V50.421C56.1023 51.8682 54.9291 53.0414 53.482 53.0414Z" fill="#EDBE00"/>
<path id="Vector_3" d="M26.5155 53.0413H34.3885C35.8356 53.0413 37.0087 51.8682 37.0087 50.4211V30.8003H35.6093C29.1398 30.8003 23.8951 36.0449 23.8951 42.5145V50.4209C23.8951 51.8681 25.0683 53.0413 26.5155 53.0413Z" fill="#FFE377"/>
</g>
<g id="Group_2">
<path id="Vector_4" d="M47.6429 42.8509H44.8424V40.1955L40 35.353V31.3926L47.6429 39.0355V42.8509Z" fill="#613393"/>
</g>
<g id="Group_3">
<path id="Vector_5" d="M38.6486 23.3104H41.4491V33.373H38.6486V23.3104Z" fill="#7A3EB4"/>
</g>
<g id="Group_4">
<path id="Vector_6" d="M32.3562 42.8509H35.1567V40.1955L39.9991 35.353V31.3926L32.3562 39.0355V42.8509Z" fill="#7A3EB4"/>
</g>
<g id="Group_5">
<path id="Vector_7" d="M40 23.3104H41.4501V33.373H40V23.3104Z" fill="#613393"/>
</g>
</g>
</g>
</g>
</svg>
