<svg width="80" height="80" viewBox="0 0 80 80" fill="none" xmlns="http://www.w3.org/2000/svg">
<g id="Group 33">
<circle id="Ellipse 18" cx="40" cy="40" r="40" fill="#00DDC1"/>
<g id="Group 10">
<mask id="mask0_584_358" style="mask-type:alpha" maskUnits="userSpaceOnUse" x="0" y="0" width="80" height="80">
<rect id="Rectangle 57" width="80" height="80" rx="40" fill="#00DDC1"/>
</mask>
<g mask="url(#mask0_584_358)">
<g id="Group">
<g id="Group_2">
<g id="Group_3">
<path id="Vector" d="M40 65.4546C54.0582 65.4546 65.4546 54.0582 65.4546 40.0001C65.4546 25.9419 54.0582 14.5455 40 14.5455C25.9419 14.5455 14.5455 25.9419 14.5455 40.0001C14.5455 54.0582 25.9419 65.4546 40 65.4546Z" fill="#00DDC1"/>
</g>
</g>
</g>
<path id="Vector_2" d="M28.6115 38.3273L33.9549 43.6707V55.4048L58.6364 80.0001H80V57.2124L52.025 29.2374L28.6115 38.3273Z" fill="#00BAA0"/>
<g id="Group_4">
<g id="Group_5">
<path id="Vector_3" d="M47.1557 26.3823C44.0689 26.0086 41.3177 27.6206 39.9999 30.1085C38.6819 27.6206 35.9307 26.0086 32.844 26.3823C29.6491 26.7692 27.1501 29.2168 26.7059 32.4042C26.2474 35.6943 28.0507 38.619 30.7807 39.8699L33.0044 53.2886C33.3366 55.0437 34.4159 56.2566 35.6453 56.2566C36.8748 56.2566 37.9542 55.0438 38.2863 53.2886L39.9999 42.6461L41.7134 53.2887C42.0455 55.0438 43.1248 56.2567 44.3543 56.2567C45.5838 56.2567 46.6631 55.0439 46.9952 53.2887L49.2189 39.87C51.9489 38.6191 53.7522 35.6945 53.2937 32.4044C52.8495 29.2168 50.3506 26.7692 47.1557 26.3823Z" fill="#EEF4FF"/>
</g>
<path id="Vector_4" d="M47.1557 26.3823C44.0689 26.0087 41.3177 27.6205 39.9999 30.1085V42.6463V42.6461L41.7134 53.2887C42.0455 55.0437 43.1247 56.2567 44.3543 56.2567C45.5838 56.2567 46.6631 55.0438 46.9952 53.2887L49.2189 39.8699C51.9489 38.6191 53.7522 35.6944 53.2937 32.4043C52.8496 29.2168 50.3506 26.7692 47.1557 26.3823Z" fill="#D6E9F8"/>
</g>
</g>
</g>
</g>
</svg>
