<svg width="80" height="80" viewBox="0 0 80 80" fill="none" xmlns="http://www.w3.org/2000/svg">
<g id="Group 32">
<circle id="Ellipse 19" cx="40" cy="40" r="40" fill="#FF9E22"/>
<g id="Group 9">
<mask id="mask0_584_396" style="mask-type:alpha" maskUnits="userSpaceOnUse" x="0" y="0" width="80" height="80">
<rect id="Rectangle 56" width="80" height="80" rx="40" fill="#FF9E22"/>
</mask>
<g mask="url(#mask0_584_396)">
<path id="Vector" d="M23.2238 42.151L61.0728 80H80V60.9179L59.0822 40L23.2238 42.151Z" fill="#E17726"/>
<path id="Vector_2" d="M59.0822 40.0001C59.0822 40.0001 50.6068 50.4489 40.1516 50.4489C29.6964 50.4489 21.2211 40.0001 21.2211 40.0001C21.2211 40.0001 29.6965 29.5513 40.1517 29.5513C50.6069 29.5513 59.0822 40.0001 59.0822 40.0001Z" fill="#EEF4FF"/>
<path id="Vector_3" d="M59.0822 40.0001C59.0822 40.0001 50.6068 50.4489 40.1516 50.4489V29.5513C50.6068 29.5513 59.0822 40.0001 59.0822 40.0001Z" fill="#D6E9F8"/>
<g id="Group">
<g id="Group_2">
<path id="Vector_4" d="M40.1515 49.8204C45.5753 49.8204 49.9722 45.4235 49.9722 39.9996C49.9722 34.5758 45.5753 30.1788 40.1515 30.1788C34.7276 30.1788 30.3307 34.5758 30.3307 39.9996C30.3307 45.4235 34.7276 49.8204 40.1515 49.8204Z" fill="#804111"/>
<path id="Vector_5" d="M49.9721 39.9996C49.9721 45.4235 45.5752 49.8204 40.1514 49.8204V30.1788C45.5753 30.1788 49.9721 34.5758 49.9721 39.9996Z" fill="#62320D"/>
<path id="Vector_6" d="M46.3266 39.9996C46.3266 43.41 43.5619 46.1748 40.1514 46.1748C37.4079 46.1748 35.0823 44.3858 34.2776 41.9107L34.2612 38.1397C35.0503 35.6381 37.3891 33.8243 40.1514 33.8243C43.5618 33.8244 46.3266 36.5891 46.3266 39.9996Z" fill="#464646"/>
<path id="Vector_7" d="M34.2618 38.1392C34.0765 38.7262 33.9762 39.3508 33.9762 39.999C33.9762 40.6662 34.0833 41.308 34.2791 41.91L38.0413 40.029L34.2618 38.1392Z" fill="#EEF4FF"/>
<path id="Vector_8" d="M46.3266 39.9996C46.3266 36.5891 43.5619 33.8243 40.1514 33.8243V46.1748C43.5618 46.1748 46.3266 43.4101 46.3266 39.9996Z" fill="#2D2D2D"/>
</g>
</g>
</g>
</g>
</g>
</svg>
