<svg width="16" height="16" viewBox="0 0 16 16" fill="none" xmlns="http://www.w3.org/2000/svg">
<g clip-path="url(#clip0_584_1854)">
<path d="M3.5 5.5C4.32031 5.5 5 4.84375 5 4C5 3.17969 4.32031 2.5 3.5 2.5C2.65625 2.5 2 3.17969 2 4C2 4.84375 2.65625 5.5 3.5 5.5ZM3.5 9.64844V9.625C3.5 9.34375 3.61719 9.08594 3.80469 8.89844L5.49219 7.28125C5.53906 7.25781 5.58594 7.23438 5.63281 7.21094C5.42188 6.64844 4.85938 6.27344 4.25 6.25H2.75C1.90625 6.25 1.25 6.92969 1.25 7.75V10C1.25 10.4219 1.57812 10.75 2 10.75V13.75C2 14.1719 2.32812 14.5 2.75 14.5H4.25C4.64844 14.5 5 14.1719 5 13.75V11.5L3.80469 10.3984C3.61719 10.2109 3.47656 9.92969 3.47656 9.64844H3.5ZM12.5 5.5C13.3203 5.5 14 4.84375 14 4C14 3.17969 13.3203 2.5 12.5 2.5C11.6562 2.5 11 3.17969 11 4C11 4.84375 11.6562 5.5 12.5 5.5ZM13.25 6.25H11.75C11.1172 6.27344 10.5547 6.64844 10.3438 7.21094C10.3906 7.23438 10.4375 7.25781 10.4844 7.30469L12.1719 8.89844C12.3594 9.08594 12.5 9.34375 12.5 9.64844C12.5 9.92969 12.3594 10.1875 12.1719 10.3984L11 11.5V13.75C11 14.1719 11.3281 14.5 11.75 14.5H13.25C13.6484 14.5 14 14.1719 14 13.75V10.75C14.3984 10.75 14.75 10.4219 14.75 10V7.75C14.75 6.92969 14.0703 6.25 13.25 6.25ZM11.6562 9.4375L9.96875 7.84375C9.92188 7.79688 9.85156 7.75 9.78125 7.75C9.61719 7.75 9.5 7.89062 9.5 8.03125V8.875H6.5V8.03125C6.5 7.89062 6.35938 7.75 6.21875 7.75C6.125 7.75 6.05469 7.79688 6.00781 7.84375L4.32031 9.4375C4.27344 9.48438 4.25 9.55469 4.25 9.64844C4.25 9.71875 4.27344 9.78906 4.32031 9.83594L6.00781 11.4297C6.05469 11.4766 6.125 11.5234 6.19531 11.5234C6.35938 11.5234 6.47656 11.3828 6.47656 11.2422H6.5V10.375H9.5V11.2422C9.5 11.3828 9.61719 11.5234 9.78125 11.5234C9.85156 11.5234 9.92188 11.4766 9.96875 11.4297L11.6562 9.83594C11.7031 9.78906 11.75 9.71875 11.75 9.64844C11.75 9.55469 11.7031 9.48438 11.6562 9.4375Z" fill="#4CB147"/>
</g>
<defs>
<clipPath id="clip0_584_1854">
<rect width="16" height="16" fill="white"/>
</clipPath>
</defs>
</svg>
