<svg width="24" height="24" viewBox="0 0 24 24" fill="none" xmlns="http://www.w3.org/2000/svg">
<g clip-path="url(#clip0_1170_26)">
<path d="M11.7891 4.62109L11.0859 5.28906C10.9102 5.46484 10.9102 5.74609 11.0859 5.88672L16.5352 11.3359H4.54688C4.30078 11.3359 4.125 11.5469 4.125 11.7578V12.7422C4.125 12.9883 4.30078 13.1641 4.54688 13.1641H16.5352L11.0859 18.6484C10.9102 18.7891 10.9102 19.0703 11.0859 19.2461L11.7891 19.9141C11.9297 20.0898 12.2109 20.0898 12.3867 19.9141L19.7344 12.5664C19.9102 12.3906 19.9102 12.1445 19.7344 11.9688L12.3867 4.62109C12.2109 4.44531 11.9297 4.44531 11.7891 4.62109Z" fill="#B0B7C3"/>
</g>
<defs>
<clipPath id="clip0_1170_26">
<rect width="24" height="24" fill="white"/>
</clipPath>
</defs>
</svg>
