<svg width="24" height="24" viewBox="0 0 24 24" fill="none" xmlns="http://www.w3.org/2000/svg">
<g clip-path="url(#clip0_1377_233)">
<path d="M19.875 9.05078H16.5C16.4648 9.05078 16.4648 9.05078 16.4648 9.05078C15.9023 9.05078 15.375 9.29688 14.9531 9.61328C15.2344 9.68359 15.5156 9.82422 15.7266 10L16.4648 10.668C16.4648 10.668 16.4648 10.6328 16.5 10.6328H19.875C20.1562 10.6328 20.4375 10.8789 20.4375 11.1602V14.3242H19.3125V18.543H17.0625V15.4141L16.9922 15.4492L15.7266 16.5742C15.6211 16.6797 15.4805 16.75 15.375 16.8203V19.0703C15.375 19.668 15.8672 20.125 16.5 20.125H19.875C20.4727 20.125 21 19.668 21 19.0703V15.9062C21.5977 15.9062 22.125 15.4492 22.125 14.8516V11.1602C22.125 10 21.1055 9.05078 19.875 9.05078ZM18.1875 8.52344C19.7344 8.52344 21 7.36328 21 5.88672C21 4.44531 19.7344 3.25 18.1875 3.25C16.6055 3.25 15.375 4.44531 15.375 5.88672C15.375 7.36328 16.6055 8.52344 18.1875 8.52344ZM18.1875 4.83203C18.7852 4.83203 19.3125 5.32422 19.3125 5.88672C19.3125 6.48438 18.7852 6.94141 18.1875 6.94141C17.5547 6.94141 17.0625 6.48438 17.0625 5.88672C17.0625 5.32422 17.5547 4.83203 18.1875 4.83203ZM6.97266 15.4492L6.9375 15.4141V18.543H4.6875V14.3242H3.5625V11.1602C3.5625 10.8789 3.80859 10.6328 4.125 10.6328H7.5V10.668L8.23828 10C8.44922 9.82422 8.73047 9.68359 9.01172 9.61328C8.58984 9.29688 8.0625 9.08594 7.5 9.08594V9.05078H4.125C2.85938 9.05078 1.875 10 1.875 11.1602V14.8516C1.875 15.4492 2.36719 15.9062 3 15.9062V19.0703C3 19.668 3.49219 20.125 4.125 20.125H7.5C8.09766 20.125 8.625 19.668 8.625 19.0703V16.8203C8.48438 16.75 8.34375 16.6797 8.23828 16.5742L6.97266 15.4492ZM5.8125 8.52344C7.35938 8.52344 8.625 7.36328 8.625 5.88672C8.625 4.44531 7.35938 3.25 5.8125 3.25C4.23047 3.25 3 4.44531 3 5.88672C3 7.36328 4.23047 8.52344 5.8125 8.52344ZM5.8125 4.83203C6.41016 4.83203 6.9375 5.32422 6.9375 5.88672C6.9375 6.48438 6.41016 6.94141 5.8125 6.94141C5.17969 6.94141 4.6875 6.48438 4.6875 5.88672C4.6875 5.32422 5.17969 4.83203 5.8125 4.83203ZM17.4844 12.9883L14.9531 10.7734C14.8828 10.7031 14.7773 10.668 14.6719 10.668C14.6016 10.668 14.5312 10.668 14.4961 10.668C14.3555 10.7383 14.25 10.8789 14.25 11.0547V12.2148H9.75V11.0547C9.71484 10.8789 9.60938 10.7383 9.46875 10.668C9.43359 10.668 9.36328 10.668 9.32812 10.668C9.1875 10.668 9.08203 10.7031 9.01172 10.7734L6.48047 12.9883C6.41016 13.0586 6.33984 13.1641 6.33984 13.3047C6.33984 13.4102 6.41016 13.5156 6.48047 13.5859L9.01172 15.8359C9.08203 15.8711 9.1875 15.9414 9.29297 15.9414C9.36328 15.9414 9.43359 15.9062 9.46875 15.9062C9.60938 15.8359 9.71484 15.6953 9.75 15.5195V14.3242H14.25V15.5195C14.25 15.6953 14.3555 15.8359 14.4961 15.9062C14.5312 15.9062 14.6016 15.9414 14.6367 15.9414C14.7773 15.9414 14.8828 15.8711 14.9531 15.8359L17.4844 13.5859C17.5547 13.5156 17.5898 13.4102 17.5898 13.3047C17.5898 13.1641 17.5547 13.0586 17.4844 12.9883Z" fill="#273142"/>
</g>
<defs>
<clipPath id="clip0_1377_233">
<rect width="24" height="24" fill="white"/>
</clipPath>
</defs>
</svg>
