<svg width="24" height="24" viewBox="0 0 24 24" fill="none" xmlns="http://www.w3.org/2000/svg">
<g clip-path="url(#clip0_589_378)">
<path d="M20.4375 9.29688L15.3047 8.55859L12.9844 3.88281C12.5977 3.07422 11.4023 3.03906 10.9805 3.88281L8.69531 8.55859L3.52734 9.29688C2.61328 9.4375 2.26172 10.5625 2.92969 11.2305L6.62109 14.8516L5.74219 19.9492C5.60156 20.8633 6.58594 21.5664 7.39453 21.1445L12 18.7188L16.5703 21.1445C17.3789 21.5664 18.3633 20.8633 18.2227 19.9492L17.3438 14.8516L21.0352 11.2305C21.7031 10.5625 21.3516 9.4375 20.4375 9.29688ZM16.1133 14.4297L17.0977 20.125L12 17.4531L6.86719 20.125L7.85156 14.4297L3.70312 10.4219L9.43359 9.57812L12 4.375L14.5312 9.57812L20.2617 10.4219L16.1133 14.4297Z" fill="#FFAD0D"/>
</g>
<defs>
<clipPath id="clip0_589_378">
<rect width="24" height="24" fill="white"/>
</clipPath>
</defs>
</svg>
