<svg width="20" height="20" viewBox="0 0 20 20" fill="none" xmlns="http://www.w3.org/2000/svg">
<g clip-path="url(#clip0_589_393)">
<path d="M17.0312 7.91406L12.7539 7.29883L10.8203 3.40234C10.498 2.72852 9.50195 2.69922 9.15039 3.40234L7.24609 7.29883L2.93945 7.91406C2.17773 8.03125 1.88477 8.96875 2.44141 9.52539L5.51758 12.543L4.78516 16.791C4.66797 17.5527 5.48828 18.1387 6.16211 17.7871L10 15.7656L13.8086 17.7871C14.4824 18.1387 15.3027 17.5527 15.1855 16.791L14.4531 12.543L17.5293 9.52539C18.0859 8.96875 17.793 8.03125 17.0312 7.91406ZM13.4277 12.1914L14.248 16.9375L10 14.7109L5.72266 16.9375L6.54297 12.1914L3.08594 8.85156L7.86133 8.14844L10 3.8125L12.1094 8.14844L16.8848 8.85156L13.4277 12.1914Z" fill="#FFAD0D"/>
</g>
<defs>
<clipPath id="clip0_589_393">
<rect width="20" height="20" fill="white"/>
</clipPath>
</defs>
</svg>
