<svg width="48" height="48" viewBox="0 0 48 48" fill="none" xmlns="http://www.w3.org/2000/svg">
<g id="Logo2 1">
<path id="Vector" d="M3.23242 23V11.848H6.33642C8.16042 11.848 9.57375 12.344 10.5764 13.336C11.5791 14.3174 12.0804 15.7093 12.0804 17.512C12.0804 19.2827 11.5844 20.6427 10.5924 21.592C9.61109 22.5307 8.18709 23 6.32042 23H3.23242ZM6.17642 21.64C7.63775 21.64 8.73642 21.3147 9.47242 20.664C10.2084 20.0027 10.5764 18.936 10.5764 17.464C10.5764 14.6267 9.15242 13.208 6.30442 13.208H4.70442V21.64H6.17642ZM16.9093 23.128C16.1733 23.128 15.5119 22.9573 14.9253 22.616C14.3386 22.264 13.8799 21.7787 13.5493 21.16C13.2186 20.5413 13.0533 19.8373 13.0533 19.048C13.0533 18.2587 13.2186 17.56 13.5493 16.952C13.8799 16.3333 14.3333 15.8533 14.9093 15.512C15.4959 15.16 16.1626 14.984 16.9093 14.984C17.6453 14.984 18.3066 15.16 18.8933 15.512C19.4799 15.8533 19.9386 16.3333 20.2693 16.952C20.5999 17.5707 20.7653 18.2693 20.7653 19.048C20.7653 19.8267 20.5999 20.5253 20.2693 21.144C19.9386 21.7627 19.4799 22.248 18.8933 22.6C18.3066 22.952 17.6453 23.128 16.9093 23.128ZM16.9093 21.88C17.6453 21.88 18.2319 21.624 18.6693 21.112C19.1173 20.6 19.3413 19.912 19.3413 19.048C19.3413 18.184 19.1173 17.5013 18.6693 17C18.2319 16.488 17.6453 16.232 16.9093 16.232C16.1626 16.232 15.5706 16.488 15.1333 17C14.7066 17.5013 14.4933 18.184 14.4933 19.048C14.4933 19.912 14.7119 20.6 15.1493 21.112C15.5866 21.624 16.1733 21.88 16.9093 21.88ZM25.4724 23.128C24.7044 23.128 24.0431 22.9467 23.4884 22.584C22.9337 22.2107 22.5124 21.72 22.2244 21.112C21.9364 20.4933 21.7924 19.8107 21.7924 19.064C21.7924 18.3493 21.9311 17.6827 22.2084 17.064C22.4857 16.4453 22.8964 15.944 23.4404 15.56C23.9951 15.176 24.6671 14.984 25.4564 14.984C26.2137 14.984 26.8751 15.176 27.4404 15.56C28.0057 15.9333 28.4324 16.4827 28.7204 17.208L27.4724 17.704C27.2911 17.2453 27.0297 16.888 26.6884 16.632C26.3471 16.3653 25.9364 16.232 25.4564 16.232C24.7311 16.232 24.1764 16.5093 23.7924 17.064C23.4191 17.608 23.2324 18.2747 23.2324 19.064C23.2324 19.8533 23.4191 20.52 23.7924 21.064C24.1764 21.608 24.7364 21.88 25.4724 21.88C25.9631 21.88 26.3737 21.752 26.7044 21.496C27.0351 21.24 27.2804 20.8773 27.4404 20.408L28.6884 20.904C28.4324 21.6293 28.0217 22.184 27.4564 22.568C26.9017 22.9413 26.2404 23.128 25.4724 23.128ZM33.6953 16.232H31.7433V20.824C31.7433 21.176 31.8126 21.4587 31.9513 21.672C32.0899 21.8747 32.3513 21.976 32.7353 21.976C33.0019 21.976 33.3219 21.9173 33.6953 21.8V22.92C33.2686 23.0587 32.8366 23.128 32.3993 23.128C31.7699 23.128 31.2686 22.9573 30.8953 22.616C30.5219 22.264 30.3353 21.7093 30.3353 20.952V16.232H29.0233V15.112H30.3353V13.032L31.7433 12.232V15.112H33.6953V16.232Z" fill="white"/>
<path id="Vector_2" d="M7.96825 36.24C6.92292 36.24 5.99492 36 5.18425 35.52C4.38425 35.0293 3.76025 34.3467 3.31225 33.472C2.87492 32.5973 2.65625 31.584 2.65625 30.432C2.65625 29.28 2.87492 28.2667 3.31225 27.392C3.76025 26.5067 4.38425 25.824 5.18425 25.344C5.99492 24.8533 6.92292 24.608 7.96825 24.608C9.02425 24.608 9.95225 24.8533 10.7522 25.344C11.5522 25.824 12.1709 26.5067 12.6082 27.392C13.0562 28.2667 13.2802 29.28 13.2802 30.432C13.2802 31.584 13.0562 32.5973 12.6082 33.472C12.1602 34.3467 11.5363 35.0293 10.7362 35.52C9.93625 36 9.01358 36.24 7.96825 36.24ZM7.96825 34.4C8.65092 34.4 9.24292 34.24 9.74425 33.92C10.2562 33.5893 10.6509 33.1253 10.9283 32.528C11.2056 31.9307 11.3442 31.232 11.3442 30.432C11.3442 29.2053 11.0402 28.2347 10.4323 27.52C9.82425 26.8053 9.00292 26.448 7.96825 26.448C6.93358 26.448 6.11225 26.8053 5.50425 27.52C4.89625 28.224 4.59225 29.1947 4.59225 30.432C4.59225 31.6587 4.89625 32.6293 5.50425 33.344C6.11225 34.048 6.93358 34.4 7.96825 34.4ZM18.5317 27.952C19.4489 27.952 20.1583 28.208 20.6597 28.72C21.161 29.2213 21.4116 29.9413 21.4116 30.88V36H19.5557V31.568C19.5557 30.8853 19.4277 30.384 19.1716 30.064C18.9263 29.7333 18.5422 29.568 18.0196 29.568C17.4222 29.568 16.9742 29.7813 16.6756 30.208C16.3876 30.6347 16.2436 31.296 16.2436 32.192V36H14.3876V28.112H16.2436V28.96C16.7556 28.288 17.5183 27.952 18.5317 27.952ZM24.559 36.16C24.0043 36.16 23.5617 35.9947 23.2311 35.664C22.9004 35.3227 22.7351 34.816 22.7351 34.144V24.848H24.5751V33.776C24.5751 34.224 24.7777 34.448 25.1831 34.448C25.3216 34.448 25.519 34.4107 25.775 34.336V35.92C25.3483 36.08 24.9431 36.16 24.559 36.16ZM28.6747 36H26.8347V28.112H28.6747V36ZM28.7066 26.848H26.8027V24.848H28.7066V26.848ZM34.3886 27.952C35.3059 27.952 36.0152 28.208 36.5166 28.72C37.0179 29.2213 37.2686 29.9413 37.2686 30.88V36H35.4126V31.568C35.4126 30.8853 35.2846 30.384 35.0286 30.064C34.7832 29.7333 34.3992 29.568 33.8766 29.568C33.2792 29.568 32.8312 29.7813 32.5326 30.208C32.2446 30.6347 32.1005 31.296 32.1005 32.192V36H30.2444V28.112H32.1005V28.96C32.6125 28.288 33.3752 27.952 34.3886 27.952ZM45.6788 31.936C45.6788 32.1387 45.6628 32.384 45.6308 32.672H40.1908C40.2228 33.2267 40.4095 33.6693 40.7508 34C41.0921 34.32 41.5721 34.48 42.1908 34.48C42.5747 34.48 42.9215 34.416 43.2308 34.288C43.5508 34.1493 43.8494 33.9253 44.1268 33.616L45.4068 34.752C44.9801 35.2213 44.5 35.5733 43.9668 35.808C43.444 36.0427 42.8521 36.16 42.1908 36.16C41.3268 36.16 40.6068 35.9787 40.0308 35.616C39.4548 35.2427 39.0281 34.752 38.7508 34.144C38.4734 33.5253 38.3348 32.8427 38.3348 32.096C38.3348 31.3707 38.4681 30.6933 38.7348 30.064C39.0121 29.4347 39.4281 28.928 39.9827 28.544C40.548 28.1493 41.2415 27.952 42.0628 27.952C42.8415 27.952 43.5028 28.128 44.0468 28.48C44.5908 28.832 44.9961 29.312 45.2628 29.92C45.5401 30.5173 45.6788 31.1893 45.6788 31.936ZM43.9028 31.232C43.9135 30.7413 43.7481 30.3307 43.4068 30C43.0655 29.6693 42.6068 29.504 42.0308 29.504C41.4761 29.504 41.0387 29.6747 40.7188 30.016C40.4095 30.3467 40.2228 30.752 40.1588 31.232H43.9028Z" fill="#4CB147"/>
</g>
</svg>
