<svg width="261" height="25" viewBox="0 0 261 25" fill="none" xmlns="http://www.w3.org/2000/svg">
<path d="M11.798 24H8.67V14.854L0.306 0.301999H3.91L10.166 11.692L16.524 0.301999H20.094L11.798 14.854V24ZM34.0608 15.058C34.0608 15.534 34.0268 16.0327 33.9588 16.554H21.9908C22.0362 18.0953 22.4782 19.308 23.3168 20.192C24.1782 21.076 25.3682 21.518 26.8868 21.518C27.8162 21.518 28.6322 21.3707 29.3348 21.076C30.0602 20.7587 30.7515 20.2487 31.4088 19.546L33.5168 21.416C32.5875 22.3907 31.5902 23.116 30.5248 23.592C29.4595 24.0453 28.2355 24.272 26.8528 24.272C25.1302 24.272 23.6682 23.898 22.4668 23.15C21.2882 22.3793 20.4042 21.348 19.8148 20.056C19.2255 18.764 18.9308 17.3133 18.9308 15.704C18.9308 14.1173 19.2142 12.6667 19.7808 11.352C20.3702 10.0147 21.2315 8.94933 22.3648 8.156C23.5208 7.36267 24.9262 6.966 26.5808 6.966C28.2355 6.966 29.6182 7.34 30.7288 8.088C31.8622 8.836 32.7008 9.822 33.2448 11.046C33.7888 12.27 34.0608 13.6073 34.0608 15.058ZM31.1368 14.174V14.038C31.1822 13.2673 31.0348 12.5307 30.6948 11.828C30.3548 11.1253 29.8222 10.5587 29.0968 10.128C28.3942 9.69733 27.5442 9.482 26.5468 9.482C25.1868 9.482 24.1102 9.93533 23.3168 10.842C22.5462 11.726 22.0815 12.8367 21.9228 14.174H31.1368ZM46.0982 6.966C48.0022 6.966 49.4755 7.51 50.5182 8.598C51.5608 9.686 52.0822 11.2613 52.0822 13.324V24H49.0562V14.446C49.0562 12.7913 48.7388 11.5787 48.1042 10.808C47.4922 10.0147 46.5628 9.618 45.3162 9.618C42.4828 9.618 41.0662 11.6467 41.0662 15.704V24H38.0402V7.238H41.0662V9.55C42.1315 7.82733 43.8088 6.966 46.0982 6.966ZM59.7271 24H56.7011V7.238H59.7271V24ZM59.7951 4.246H56.6331V0.301999H59.7951V4.246ZM81.3267 6.966C83.2533 6.966 84.7267 7.52133 85.7467 8.632C86.7893 9.72 87.3107 11.284 87.3107 13.324V24H84.2847V14.446C84.2847 12.814 83.9787 11.6013 83.3667 10.808C82.7547 10.0147 81.814 9.618 80.5447 9.618C77.7113 9.618 76.2947 11.6467 76.2947 15.704V24H73.2687V0.301999H76.2947V9.55C77.3373 7.82733 79.0147 6.966 81.3267 6.966ZM98.1224 6.966C99.8451 6.966 101.296 7.35133 102.474 8.122C103.676 8.87 104.571 9.89 105.16 11.182C105.75 12.474 106.044 13.9247 106.044 15.534C106.044 17.1207 105.75 18.5827 105.16 19.92C104.594 21.2347 103.732 22.2887 102.576 23.082C101.443 23.8753 100.049 24.272 98.3944 24.272C96.7397 24.272 95.3457 23.898 94.2124 23.15C93.1017 22.402 92.2744 21.416 91.7304 20.192C91.1864 18.968 90.9144 17.6307 90.9144 16.18C90.9144 15.6813 90.9484 15.1827 91.0164 14.684H102.984C102.939 13.1427 102.486 11.93 101.624 11.046C100.786 10.1393 99.6071 9.686 98.0884 9.686C97.1591 9.686 96.3317 9.84467 95.6064 10.162C94.9037 10.4567 94.2237 10.9667 93.5664 11.692L91.4584 9.822C92.3877 8.82467 93.3737 8.09933 94.4164 7.646C95.4817 7.19267 96.7171 6.966 98.1224 6.966ZM98.4284 21.756C99.7884 21.756 100.854 21.314 101.624 20.43C102.418 19.5233 102.894 18.4013 103.052 17.064H93.8384V17.2C93.8157 17.9707 93.9744 18.7073 94.3144 19.41C94.6544 20.1127 95.1757 20.6793 95.8784 21.11C96.5811 21.5407 97.4311 21.756 98.4284 21.756ZM124.202 7.238L118.184 13.426L125.086 24H121.482L115.974 15.5L113.084 18.594V24H110.058V0.301999H113.084V14.82L120.156 7.238H124.202ZM131.28 24H128.254V7.238H131.28V24ZM131.348 4.246H128.186V0.301999H131.348V4.246ZM153.666 6.966C155.752 6.966 157.282 7.60067 158.256 8.87C159.254 10.1167 159.752 11.7487 159.752 13.766V24H156.692V14.446C156.692 11.2273 155.536 9.618 153.224 9.618C152 9.618 151.06 10.0827 150.402 11.012C149.768 11.9187 149.45 13.2673 149.45 15.058V24H146.39V14.276C146.39 11.1707 145.268 9.618 143.024 9.618C141.778 9.618 140.826 10.0827 140.168 11.012C139.511 11.9187 139.182 13.2673 139.182 15.058V24H136.122V7.238H139.012V9.55C139.534 8.666 140.202 8.02 141.018 7.612C141.834 7.18133 142.73 6.966 143.704 6.966C145.903 6.966 147.478 7.75933 148.43 9.346C149.632 7.75933 151.377 6.966 153.666 6.966ZM167.38 24.272C166.314 24.272 165.464 23.9433 164.83 23.286C164.218 22.6287 163.912 21.62 163.912 20.26V0.301999H166.938V19.682C166.938 20.8833 167.425 21.484 168.4 21.484C168.762 21.484 169.238 21.3933 169.828 21.212V23.83C168.944 24.1247 168.128 24.272 167.38 24.272ZM178.872 6.966C180.595 6.966 182.046 7.35133 183.224 8.122C184.426 8.87 185.321 9.89 185.91 11.182C186.5 12.474 186.794 13.9247 186.794 15.534C186.794 17.1207 186.5 18.5827 185.91 19.92C185.344 21.2347 184.482 22.2887 183.326 23.082C182.193 23.8753 180.799 24.272 179.144 24.272C177.49 24.272 176.096 23.898 174.962 23.15C173.852 22.402 173.024 21.416 172.48 20.192C171.936 18.968 171.664 17.6307 171.664 16.18C171.664 15.6813 171.698 15.1827 171.766 14.684H183.734C183.689 13.1427 183.236 11.93 182.374 11.046C181.536 10.1393 180.357 9.686 178.838 9.686C177.909 9.686 177.082 9.84467 176.356 10.162C175.654 10.4567 174.974 10.9667 174.316 11.692L172.208 9.822C173.138 8.82467 174.124 8.09933 175.166 7.646C176.232 7.19267 177.467 6.966 178.872 6.966ZM179.178 21.756C180.538 21.756 181.604 21.314 182.374 20.43C183.168 19.5233 183.644 18.4013 183.802 17.064H174.588V17.2C174.566 17.9707 174.724 18.7073 175.064 19.41C175.404 20.1127 175.926 20.6793 176.628 21.11C177.331 21.5407 178.181 21.756 179.178 21.756ZM198.56 6.966C199.693 6.966 200.713 7.22667 201.62 7.748L200.158 10.366C199.523 10.0487 198.832 9.89 198.084 9.89C197.177 9.89 196.361 10.1507 195.636 10.672C194.933 11.1933 194.434 11.9753 194.14 13.018C193.936 13.6527 193.834 14.7293 193.834 16.248V24H190.808V7.238H193.868V9.822C194.344 8.938 195.001 8.24667 195.84 7.748C196.678 7.22667 197.585 6.966 198.56 6.966ZM207.713 24H204.687V7.238H207.713V24ZM207.781 4.246H204.619V0.301999H207.781V4.246ZM230.1 6.966C232.185 6.966 233.715 7.60067 234.69 8.87C235.687 10.1167 236.186 11.7487 236.186 13.766V24H233.126V14.446C233.126 11.2273 231.97 9.618 229.658 9.618C228.434 9.618 227.493 10.0827 226.836 11.012C226.201 11.9187 225.884 13.2673 225.884 15.058V24H222.824V14.276C222.824 11.1707 221.702 9.618 219.458 9.618C218.211 9.618 217.259 10.0827 216.602 11.012C215.944 11.9187 215.616 13.2673 215.616 15.058V24H212.556V7.238H215.446V9.55C215.967 8.666 216.636 8.02 217.452 7.612C218.268 7.18133 219.163 6.966 220.138 6.966C222.336 6.966 223.912 7.75933 224.864 9.346C226.065 7.75933 227.81 6.966 230.1 6.966ZM243.838 24H240.812V7.238H243.838V24ZM243.906 4.246H240.744V0.301999H243.906V4.246ZM248.001 7.238H260.921V9.516L251.435 21.45H260.853V24H247.525V21.892L257.283 9.788H248.001V7.238Z" fill="#101825"/>
</svg>
